<?xml version="1.0" encoding="UTF-8"?>
<svg viewBox="0 0 347 277" version="1.1" xmlns="http://www.w3.org/2000/svg" xmlns:xlink="http://www.w3.org/1999/xlink">
    <defs>
        <linearGradient x1="49.9983096%" y1="100.00595%" x2="49.9983096%" y2="-0.00150157813%" id="linearGradient-1">
            <stop stop-color="#808080" stop-opacity="0.25" offset="0%"></stop>
            <stop stop-color="#808080" stop-opacity="0.12" offset="54%"></stop>
            <stop stop-color="#808080" stop-opacity="0.1" offset="100%"></stop>
        </linearGradient>
    </defs>
    <g id="Design" stroke="none" stroke-width="1" fill="none" fill-rule="evenodd">
        <g id="01---Welcome-1" transform="translate(-14.000000, -119.000000)">
            <g id="Image" transform="translate(14.000000, 119.000000)">
                <path d="M203.471574,46.6126491 C181.518651,45.8494526 160.607067,38.7635973 140.641848,31.009521 C120.676628,23.2554448 100.901359,14.6635484 79.4741935,10.5558553 C65.6925611,7.91349951 49.9300098,7.54038123 38.828045,14.9281232 C28.1399022,22.0512903 24.6868622,34.3133138 22.8314467,45.7035973 C21.4339492,54.2717498 20.613089,63.2876442 24.4426393,71.3096872 C27.098563,76.8793255 31.8168133,81.5602639 35.0765103,86.9128152 C46.4294819,105.473754 38.4074389,128.362864 26.1047116,146.486237 C20.3383382,154.989941 13.6391691,163.10696 9.18888563,172.14999 C4.73860215,181.193021 2.67627566,191.569101 6.5702737,200.802082 C10.4337439,209.96044 19.6361975,216.825816 29.6018475,221.659394 C49.8486022,231.479189 73.6976442,234.287752 96.9700489,235.878592 C148.470547,239.402864 200.242405,237.876471 251.878583,236.350078 C270.989022,235.783617 290.18087,235.210371 308.979247,232.255953 C319.419775,230.614233 330.196109,228.012581 337.777195,221.723842 C347.396862,213.742502 349.781427,200.225445 343.336657,190.219091 C332.519619,173.43216 302.632845,169.263412 295.061935,151.245191 C290.903363,141.33042 295.177263,130.286119 301.221779,121.087058 C314.192727,101.359277 335.931955,84.0499804 337.078446,61.5000684 C337.865386,46.0088759 327.41129,30.5007234 311.251877,23.1706452 C294.315699,15.4606647 270.822815,16.4375562 258.333529,29.1541056 C245.46434,42.2573412 222.853372,47.284262 203.471574,46.6126491 Z" id="Path" fill="#F78500" fill-rule="nonzero" opacity="0.1"></path>
                <polygon id="Path" fill="#F78500" fill-rule="nonzero" points="147.703959 234.21652 31.6031183 233.650059 20.0669795 206.592199 60.8589834 203.630997 53.7493842 173.964702 134.431124 163.507214 57.1718964 136.649482 63.9965689 135.028113 188.227996 155.29522 181.386364 201.592414 171.607273 227.035689"></polygon>
                <path d="M33.3839101,222.317439 C33.3839101,222.317439 40.5070772,221.177732 44.7809775,226.211437 C44.7809775,226.211437 41.646784,228.680802 34.9035191,225.261681 L33.3839101,222.317439 Z" id="Path" fill="#F78500" fill-rule="nonzero"></path>
                <path d="M32.6376735,222.205503 C32.6376735,222.205503 28.0924145,227.798886 30.3311241,234.026569 C30.3311241,234.026569 34.0351711,232.544272 34.4388172,224.993715 L32.6376735,222.205503 Z" id="Path" fill="#F78500" fill-rule="nonzero"></path>
                <path d="M28.5537243,213.009834 C28.5537243,213.009834 31.4029912,207.782786 42.8000587,215.099296 C42.8000587,215.099296 41.2804497,218.613392 36.2467449,218.328465 C31.2130401,218.043539 29.8833822,215.764125 28.5537243,213.009834 Z" id="Path" fill="#F78500" fill-rule="nonzero"></path>
                <path d="M27.8176637,212.633324 C27.8176637,212.633324 21.905435,211.954927 21.3321896,225.488944 C21.3321896,225.488944 25.0803324,226.265709 27.7430401,221.985024 C30.4057478,217.70434 29.3135288,215.302815 27.8176637,212.633324 Z" id="Path" fill="#F78500" fill-rule="nonzero"></path>
                <path d="M24.3747996,201.836637 C24.3747996,201.836637 27.6989443,192.624008 39.7608407,199.177322 C39.7608407,199.177322 37.0065494,207.630147 25.6094819,204.970831 L24.3747996,201.836637 Z" id="Path" fill="#F78500" fill-rule="nonzero"></path>
                <path d="M20.6707527,188.065181 C20.6707527,188.065181 26.9391398,178.757576 38.0512805,187.386784 C38.0512805,187.386784 34.1572825,196.124536 21.6205083,191.375758 L20.6707527,188.065181 Z" id="Path" fill="#F78500" fill-rule="nonzero"></path>
                <path d="M19.3410948,174.958553 C19.3410948,174.958553 26.6542131,166.407361 37.6578104,174.958553 C37.6578104,174.958553 30.7245943,182.461623 19.3410948,177.142991 L19.3410948,174.958553 Z" id="Path" fill="#F78500" fill-rule="nonzero"></path>
                <path d="M18.2013881,162.228436 C18.2013881,162.228436 25.6094819,153.300733 36.1517693,161.753558 C36.1517693,161.753558 27.7939198,169.63653 18.2013881,164.317898 L18.2013881,162.228436 Z" id="Path" fill="#F78500" fill-rule="nonzero"></path>
                <path d="M18.866217,150.926344 C18.866217,150.926344 26.667781,139.434301 36.5316716,147.222297 C36.5316716,147.222297 28.1738221,157.099756 18.866217,153.110782 L18.866217,150.926344 Z" id="Path" fill="#F78500" fill-rule="nonzero"></path>
                <path d="M20.6707527,137.724741 C20.6707527,137.724741 28.9336266,126.327674 38.5261584,135.065425 C38.5261584,135.065425 28.7436755,144.942884 20.6707527,139.814203 L20.6707527,137.724741 Z" id="Path" fill="#F78500" fill-rule="nonzero"></path>
                <path d="M23.425044,125.924027 C23.425044,125.924027 33.2075269,115.212141 41.7417595,119.479257 C41.7417595,119.479257 31.5488465,130.855973 22.997654,128.76651 L23.425044,125.924027 Z" id="Path" fill="#F78500" fill-rule="nonzero"></path>
                <path d="M26.8441642,114.737263 C26.8441642,114.737263 38.1326882,101.617067 44.6995699,105.999511 C44.6995699,105.999511 36.3824242,116.175464 26.0436559,117.19306 L26.8441642,114.737263 Z" id="Path" fill="#F78500" fill-rule="nonzero"></path>
                <path d="M31.7795015,101.762923 C31.7795015,101.762923 41.6603519,91.0510362 48.8784946,93.7103519 C48.8784946,93.7103519 40.4256696,104.822493 30.4532356,105.107419 L31.7795015,101.762923 Z" id="Path" fill="#F78500" fill-rule="nonzero"></path>
                <path d="M36.2467449,89.6264027 C36.2467449,89.6264027 47.1689345,79.369042 51.9177126,81.1735777 C51.9177126,81.1735777 44.034741,92.5706452 35.7718671,91.9058162 L36.2467449,89.6264027 Z" id="Path" fill="#F78500" fill-rule="nonzero"></path>
                <path d="M40.6156207,78.4192864 C40.6156207,78.4192864 50.0182014,66.1640469 55.1502737,67.1138025 C55.1502737,67.1138025 49.448348,78.0393842 40.6156207,79.6641447 L40.6156207,78.4192864 Z" id="Path" fill="#F78500" fill-rule="nonzero"></path>
                <path d="M45.3576149,63.3079961 C45.3576149,63.3079961 53.6679765,53.9155914 58.1589638,53.9359103 C58.1589638,53.9359103 51.5988661,66.4862854 45.0150244,66.370958 L45.3576149,63.3079961 Z" id="Path" fill="#F78500" fill-rule="nonzero"></path>
                <path d="M48.1661779,53.2473705 L56.1950049,33.6824047 C56.1950049,33.6824047 56.595259,51.3682111 47.1451906,56.8767937 L48.1661779,53.2473705 Z" id="Path" fill="#F78500" fill-rule="nonzero"></path>
                <path d="M51.4258749,31.670958 C51.4258749,31.670958 52.7555327,15.3317693 51.9007527,14.0021114 C51.9007527,14.0021114 57.6399902,27.5870088 51.3716031,38.8891007 L51.4258749,31.670958 Z" id="Path" fill="#F78500" fill-rule="nonzero"></path>
                <path d="M24.062737,201.61955 C24.062737,201.61955 15.7388074,196.460342 10.3489443,209.081916 C10.3489443,209.081916 17.7570381,214.000293 25.0430205,204.838543 L24.062737,201.61955 Z" id="Path" fill="#F78500" fill-rule="nonzero"></path>
                <path d="M20.4027859,187.539423 C20.4027859,187.539423 10.192913,182.882229 5.24061584,196.060088 C5.24061584,196.060088 13.1269795,201.487263 21.3321896,190.870352 L20.4027859,187.539423 Z" id="Path" fill="#F78500" fill-rule="nonzero"></path>
                <path d="M18.866217,175.742102 C18.866217,175.742102 11.5530987,167.190909 0.549501466,175.742102 C0.549501466,175.742102 7.4827175,183.245171 18.866217,177.92654 L18.866217,175.742102 Z" id="Path" fill="#F78500" fill-rule="nonzero"></path>
                <path d="M17.9503812,162.228436 C17.9503812,162.228436 10.5422874,153.300733 0,161.753558 C0,161.753558 8.35784946,169.63653 17.9503812,164.317898 L17.9503812,162.228436 Z" id="Path" fill="#F78500" fill-rule="nonzero"></path>
                <path d="M18.866217,151.251975 C18.866217,151.251975 13.669697,138.379394 2.37438905,143.915112 C2.37438905,143.915112 8.4799609,155.32914 18.4049071,153.388925 L18.866217,151.251975 Z" id="Path" fill="#F78500" fill-rule="nonzero"></path>
                <path d="M21.3254057,137.660293 C21.3254057,137.660293 16.1594135,124.563842 4.70468231,130.635494 C4.70468231,130.635494 11.719306,142.639726 20.816608,139.681916 L21.3254057,137.660293 Z" id="Path" fill="#F78500" fill-rule="nonzero"></path>
                <path d="M24.5274389,125.988475 C24.5274389,125.988475 22.4922483,111.630205 12.9946921,110.344643 C12.9946921,110.344643 15.0095308,125.486461 23.2486608,128.576559 L24.5274389,125.988475 Z" id="Path" fill="#F78500" fill-rule="nonzero"></path>
                <path d="M27.0849951,114.764399 C27.0849951,114.764399 26.2912708,97.4652786 18.438827,96.8615054 C18.438827,96.8615054 18.7034018,109.991877 26.1996872,117.213412 L27.0849951,114.764399 Z" id="Path" fill="#F78500" fill-rule="nonzero"></path>
                <path d="M32.5935777,101.277869 C32.5935777,101.277869 30.2531085,86.8924633 22.7568231,85.1354154 C22.7568231,85.1354154 23.6862268,99.0662952 31.8507331,104.808925 L32.5935777,101.277869 Z" id="Path" fill="#F78500" fill-rule="nonzero"></path>
                <path d="M37.1354448,89.7451222 C37.1354448,89.7451222 37.0574291,74.7593353 32.4782502,72.5579374 C32.4782502,72.5579374 29.6391593,86.1258749 35.8091789,91.6582014 L37.1354448,89.7451222 Z" id="Path" fill="#F78500" fill-rule="nonzero"></path>
                <path d="M40.9649951,78.2496872 C40.9649951,78.2496872 40.3239101,62.8195503 35.5819159,60.6452884 C35.5819159,60.6452884 33.9605474,72.8564321 40.2560704,79.2604985 L40.9649951,78.2496872 Z" id="Path" fill="#F78500" fill-rule="nonzero"></path>
                <path d="M46.0190518,64.5392864 C46.0190518,64.5392864 45.9919159,51.9889443 42.6067155,49.0447019 C42.6067155,49.0447019 39.2418671,62.7924145 44.251828,67.0629228 L46.0190518,64.5392864 Z" id="Path" fill="#F78500" fill-rule="nonzero"></path>
                <path d="M47.7693157,52.6300293 L44.4756989,31.7421896 C44.4756989,31.7421896 40.0016716,48.8581427 47.925347,56.4019159 L47.7693157,52.6300293 Z" id="Path" fill="#F78500" fill-rule="nonzero"></path>
                <path d="M48.4104008,31.8676931 C48.4104008,31.8676931 39.9575758,17.8248778 40.130567,16.264565 C40.130567,16.264565 41.0294428,30.9823851 51.6633138,38.3124633 L48.4104008,31.8676931 Z" id="Path" fill="#F78500" fill-rule="nonzero"></path>
                <path d="M49.4008602,27.7192962 C49.4008602,27.7192962 41.422913,7.77442815 37.8138416,6.1598436 C37.8138416,6.1598436 49.2109091,11.9533529 50.0656891,27.1494428 L49.4008602,27.7192962 Z" id="Path" fill="#F78500" fill-rule="nonzero"></path>
                <path d="M44.9743206,66.4896774 L44.4282111,66.3234702 C51.1613001,44.3671554 52.8403324,30.368436 49.1600293,26.8577322 L49.5501075,26.4439101 C53.4542815,30.147957 51.8702248,43.9940371 44.9743206,66.4896774 Z" id="Path" fill="#444053" fill-rule="nonzero"></path>
                <path d="M26.4337341,117.898592 L25.6264418,117.610274 C26.3421505,115.598827 27.112131,113.556852 27.9194233,111.545406 C34.9476149,94.0291984 40.9310753,77.7341056 44.7674096,65.2244673 L45.4695503,64.8852688 C41.6264418,77.418651 35.7481232,94.337869 28.7131476,111.87782 C27.9092473,113.851955 27.1426588,115.883754 26.4337341,117.898592 Z" id="Path" fill="#444053" fill-rule="nonzero"></path>
                <path d="M43.4207918,238.748211 C43.3122483,238.629492 32.4002346,226.340332 24.7920137,205.360909 C20.3340484,193.078318 17.8530641,180.166208 17.4415836,167.106109 C16.919218,150.780489 20.3451222,132.551965 26.2132551,115.992297 L26.8509482,116.738534 C13.6764809,153.904506 18.9103128,185.751848 25.8537048,204.930127 C33.3805181,225.719599 44.1704203,237.873079 44.2755718,237.995191 L43.4207918,238.748211 Z" id="Path" fill="#444053" fill-rule="nonzero"></path>
                <path d="M213.94263,212.657067 C213.94263,212.657067 206.253001,222.042688 212.358573,236.231359 L150.963656,262.858436 L145.071779,264.093118 L142.358192,252.221173 L144.172903,237.238778 L144.172903,229.050528 L213.94263,212.657067 Z" id="Path" fill="#D5D6DB" fill-rule="nonzero"></path>
                <polygon id="Path" fill="#F78500" fill-rule="nonzero" points="20.0669795 206.592199 105.042972 191.101007 217.639892 209.03782 147.703959 234.21652"></polygon>
                <polygon id="Path" fill="#F78500" fill-rule="nonzero" points="20.0669795 206.592199 105.042972 191.101007 217.639892 209.03782 147.703959 234.21652"></polygon>
                <path d="M20.0669795,206.588807 C20.0669795,206.588807 12.1195601,221.645826 21.2779179,235.552962 L147.290137,262.858436 C147.290137,262.858436 139.468221,250.864379 147.693783,234.21652 L20.0669795,206.588807 Z" id="Path" fill="#F78500" fill-rule="nonzero"></path>
                <path d="M20.0669795,206.588807 C20.0669795,206.588807 12.1195601,221.645826 21.2779179,235.552962 L147.290137,262.858436 C147.290137,262.858436 139.468221,250.864379 147.693783,234.21652 L20.0669795,206.588807 Z" id="Path" fill="#000000" fill-rule="nonzero" opacity="0.1"></path>
                <path d="M23.8219062,211.809071 C23.8219062,211.809071 19.2800391,222.826237 23.8219062,229.956188" id="Path" fill="#000000" fill-rule="nonzero" opacity="0.1"></path>
                <path d="M147.290137,262.858436 L217.639892,232.839374 C217.639892,232.839374 221.574594,233.68737 219.030606,236.570557 C216.486618,239.453744 148.646931,265.741623 148.646931,265.741623 L21.2779179,235.552962 L147.290137,262.858436 Z" id="Path" fill="#F78500" fill-rule="nonzero"></path>
                <path d="M147.290137,262.858436 L217.639892,232.839374 C217.639892,232.839374 221.574594,233.68737 219.030606,236.570557 C216.486618,239.453744 148.646931,265.741623 148.646931,265.741623 L21.2779179,235.552962 L147.290137,262.858436 Z" id="Path" fill="#000000" fill-rule="nonzero" opacity="0.1"></path>
                <path d="M141.523763,237.248954 C141.523763,237.248954 134.739795,245.389717 141.523763,257.60086" id="Path" fill="#000000" fill-rule="nonzero" opacity="0.1"></path>
                <polygon id="Rectangle" fill="#000000" fill-rule="nonzero" opacity="0.1" transform="translate(159.206497, 242.348149) rotate(-18.450000) translate(-159.206497, -242.348149) " points="143.167499 242.17855 175.245495 242.17855 175.245495 242.517748 143.167499 242.517748"></polygon>
                <polygon id="Rectangle" fill="#000000" fill-rule="nonzero" opacity="0.1" transform="translate(162.255694, 243.205801) rotate(-20.820000) translate(-162.255694, -243.205801) " points="142.712776 243.036202 181.798612 243.036202 181.798612 243.3754 142.712776 243.3754"></polygon>
                <polygon id="Rectangle" fill="#000000" fill-rule="nonzero" opacity="0.1" transform="translate(165.160278, 244.790033) rotate(-22.260000) translate(-165.160278, -244.790033) " points="142.508607 244.620434 187.81195 244.620434 187.81195 244.959632 142.508607 244.959632"></polygon>
                <polygon id="Rectangle" fill="#000000" fill-rule="nonzero" opacity="0.1" transform="translate(168.453907, 245.471396) rotate(-24.310000) translate(-168.453907, -245.471396) " points="142.379723 245.301797 194.52809 245.301797 194.52809 245.640995 142.379723 245.640995"></polygon>
                <polygon id="Rectangle" fill="#000000" fill-rule="nonzero" opacity="0.1" transform="translate(171.196931, 246.166995) rotate(-23.610000) translate(-171.196931, -246.166995) " points="142.678823 245.997396 199.71504 245.997396 199.71504 246.336595 142.678823 246.336595"></polygon>
                <polygon id="Rectangle" fill="#000000" fill-rule="nonzero" opacity="0.1" transform="translate(177.182866, 246.377468) rotate(-23.360000) translate(-177.182866, -246.377468) " points="143.056111 246.207869 211.30962 246.207869 211.30962 246.547068 143.056111 246.547068"></polygon>
                <polygon id="Path" fill="#FFFFFF" fill-rule="nonzero" opacity="0.3" points="51.6361779 208.247488 111.335103 195.697146 147.703959 202.650714 98.7847605 218.423441"></polygon>
                <path d="M217.639892,209.03782 C217.639892,209.03782 220.726598,210.282678 218.915279,212.205934 C217.103959,214.129189 147.693783,234.21652 147.693783,234.21652 L217.639892,209.03782 Z" id="Path" fill="#F78500" fill-rule="nonzero"></path>
                <path d="M247.621642,180.032962 C247.621642,180.032962 239.935406,189.415191 246.040978,203.607253 L184.646061,230.23433 L178.754184,231.475797 L176.040596,219.603851 L177.882444,204.624848 L177.882444,196.426422 L247.621642,180.032962 Z" id="Path" fill="#D5D6DB" fill-rule="nonzero"></path>
                <polygon id="Path" fill="#3A3768" fill-rule="nonzero" points="53.7493842 173.964702 138.721984 158.476901 251.322297 176.413715 181.386364 201.592414"></polygon>
                <path d="M53.7358162,173.964702 C53.7358162,173.964702 45.7850049,189.02172 54.9433627,202.928856 L180.955582,230.23433 C180.955582,230.23433 173.137058,218.230098 181.372796,201.589022 L53.7358162,173.964702 Z" id="Path" fill="#3A3768" fill-rule="nonzero"></path>
                <path d="M53.7358162,173.964702 C53.7358162,173.964702 45.7850049,189.02172 54.9433627,202.928856 L180.955582,230.23433 C180.955582,230.23433 173.137058,218.230098 181.372796,201.589022 L141.523763,192.963206 L53.7358162,173.964702 Z" id="Path" fill="#000000" fill-rule="nonzero" opacity="0.1"></path>
                <path d="M57.5009189,179.184966 C57.5009189,179.184966 52.9624438,190.198739 57.5009189,197.332082" id="Path" fill="#000000" fill-rule="nonzero" opacity="0.1"></path>
                <path d="M180.96915,230.23433 L251.322297,200.215269 C251.322297,200.215269 255.253607,201.063265 252.709619,203.946452 C250.16563,206.829638 182.325943,233.117517 182.325943,233.117517 L54.9569306,202.928856 L180.96915,230.23433 Z" id="Path" fill="#3A3768" fill-rule="nonzero"></path>
                <path d="M180.96915,230.23433 L251.322297,200.215269 C251.322297,200.215269 255.253607,201.063265 252.709619,203.946452 C250.16563,206.829638 182.325943,233.117517 182.325943,233.117517 L54.9569306,202.928856 L180.96915,230.23433 Z" id="Path" fill="#000000" fill-rule="nonzero" opacity="0.1"></path>
                <path d="M175.202776,204.624848 C175.202776,204.624848 168.418807,212.765611 175.202776,224.976755" id="Path" fill="#000000" fill-rule="nonzero" opacity="0.1"></path>
                <polygon id="Rectangle" fill="#000000" fill-rule="nonzero" opacity="0.1" transform="translate(192.888142, 209.727651) rotate(-18.450000) translate(-192.888142, -209.727651) " points="176.849144 209.558051 208.92714 209.558051 208.92714 209.89725 176.849144 209.89725"></polygon>
                <polygon id="Rectangle" fill="#000000" fill-rule="nonzero" opacity="0.1" transform="translate(195.941594, 210.583687) rotate(-20.820000) translate(-195.941594, -210.583687) " points="176.398676 210.414088 215.484512 210.414088 215.484512 210.753287 176.398676 210.753287"></polygon>
                <polygon id="Rectangle" fill="#000000" fill-rule="nonzero" opacity="0.1" transform="translate(198.841207, 212.163222) rotate(-22.260000) translate(-198.841207, -212.163222) " points="176.189535 211.993623 221.492878 211.993623 221.492878 212.332821 176.189535 212.332821"></polygon>
                <polygon id="Rectangle" fill="#000000" fill-rule="nonzero" opacity="0.1" transform="translate(202.138764, 212.845246) rotate(-24.310000) translate(-202.138764, -212.845246) " points="176.064581 212.675647 228.212948 212.675647 228.212948 213.014846 176.064581 213.014846"></polygon>
                <polygon id="Rectangle" fill="#000000" fill-rule="nonzero" opacity="0.1" transform="translate(204.876935, 213.536530) rotate(-23.610000) translate(-204.876935, -213.536530) " points="176.358827 213.366931 233.395044 213.366931 233.395044 213.70613 176.358827 213.70613"></polygon>
                <polygon id="Rectangle" fill="#000000" fill-rule="nonzero" opacity="0.1" transform="translate(210.865449, 213.747047) rotate(-23.360000) translate(-210.865449, -213.747047) " points="176.738695 213.577448 244.992204 213.577448 244.992204 213.916647 176.738695 213.916647"></polygon>
                <polygon id="Path" fill="#FFFFFF" fill-rule="nonzero" opacity="0.45" points="85.3185826 175.623382 145.017507 163.07304 181.386364 170.026608 132.467165 185.799335"></polygon>
                <path d="M251.322297,176.413715 C251.322297,176.413715 254.405611,177.658573 252.597683,179.578436 C250.789756,181.498299 181.386364,201.589022 181.386364,201.589022 L251.322297,176.413715 Z" id="Path" fill="#3A3768" fill-rule="nonzero"></path>
                <path d="M250.810108,142.710958 C250.810108,142.710958 243.120479,159.558944 249.226051,173.747615 L187.831134,192.912326 L181.952825,194.157185 L179.239238,182.285239 L181.053949,167.302845 L181.053949,159.104418 L250.810108,142.710958 Z" id="Path" fill="#D5D6DB" fill-rule="nonzero"></path>
                <polygon id="Path" fill="#F78500" fill-rule="nonzero" points="56.9480254 136.64609 141.924018 121.154897 254.52433 139.091711 184.585005 164.270411"></polygon>
                <path d="M56.9480254,136.642698 C56.9480254,136.642698 48.9870381,151.699717 58.1453959,165.606852 L184.157615,192.912326 C184.157615,192.912326 176.335699,180.908094 184.571437,164.270411 L56.9480254,136.642698 Z" id="Path" fill="#F78500" fill-rule="nonzero"></path>
                <path d="M56.9480254,136.642698 C56.9480254,136.642698 48.9870381,151.699717 58.1453959,165.606852 L184.157615,192.912326 C184.157615,192.912326 176.335699,180.908094 184.571437,164.270411 L56.9480254,136.642698 Z" id="Path" fill="#000000" fill-rule="nonzero" opacity="0.1"></path>
                <path d="M60.7029521,141.862962 C60.7029521,141.862962 56.161085,152.880127 60.7029521,160.010078" id="Path" fill="#000000" fill-rule="nonzero" opacity="0.1"></path>
                <path d="M184.171183,192.912326 L254.520938,170.35563 C254.520938,170.35563 258.45564,171.203627 255.911652,174.086813 C253.367664,176.97 185.527977,195.795513 185.527977,195.795513 L58.1589638,165.606852 L184.171183,192.912326 Z" id="Path" fill="#F78500" fill-rule="nonzero"></path>
                <path d="M184.171183,192.912326 L254.520938,170.35563 C254.520938,170.35563 258.45564,171.203627 255.911652,174.086813 C253.367664,176.97 185.527977,195.795513 185.527977,195.795513 L58.1589638,165.606852 L184.171183,192.912326 Z" id="Path" fill="#000000" fill-rule="nonzero" opacity="0.1"></path>
                <path d="M178.404809,167.302845 C178.404809,167.302845 171.620841,175.443607 178.404809,187.654751" id="Path" fill="#000000" fill-rule="nonzero" opacity="0.1"></path>
                <polygon id="Rectangle" fill="#000000" fill-rule="nonzero" opacity="0.1" transform="translate(196.091133, 172.404961) rotate(-18.450000) translate(-196.091133, -172.404961) " points="180.052135 172.235362 212.130131 172.235362 212.130131 172.57456 180.052135 172.57456"></polygon>
                <polygon id="Rectangle" fill="#000000" fill-rule="nonzero" opacity="0.1" transform="translate(199.142242, 173.262715) rotate(-20.820000) translate(-199.142242, -173.262715) " points="179.599324 173.093115 218.68516 173.093115 218.68516 173.432314 179.599324 173.432314"></polygon>
                <polygon id="Rectangle" fill="#000000" fill-rule="nonzero" opacity="0.1" transform="translate(202.038743, 174.843888) rotate(-22.260000) translate(-202.038743, -174.843888) " points="179.387072 174.674289 224.690415 174.674289 224.690415 175.013487 179.387072 175.013487"></polygon>
                <polygon id="Rectangle" fill="#000000" fill-rule="nonzero" opacity="0.1" transform="translate(205.341021, 175.522943) rotate(-24.310000) translate(-205.341021, -175.522943) " points="179.266837 175.353344 231.415205 175.353344 231.415205 175.692543 179.266837 175.692543"></polygon>
                <polygon id="Rectangle" fill="#000000" fill-rule="nonzero" opacity="0.1" transform="translate(208.080939, 176.217463) rotate(-23.610000) translate(-208.080939, -176.217463) " points="179.56283 176.047864 236.599047 176.047864 236.599047 176.387062 179.56283 176.387062"></polygon>
                <polygon id="Rectangle" fill="#000000" fill-rule="nonzero" opacity="0.1" transform="translate(214.068334, 176.430175) rotate(-23.360000) translate(-214.068334, -176.430175) " points="179.941579 176.260576 248.195089 176.260576 248.195089 176.599775 179.941579 176.599775"></polygon>
                <polygon id="Path" fill="#FFFFFF" fill-rule="nonzero" opacity="0.3" points="88.5172239 138.301378 148.216149 125.751036 184.585005 132.704604 135.665806 148.477331"></polygon>
                <path d="M254.520938,139.091711 C254.520938,139.091711 257.607644,140.336569 255.796325,142.259824 C253.985005,144.183079 184.585005,164.270411 184.585005,164.270411 L254.520938,139.091711 Z" id="Path" fill="#F78500" fill-rule="nonzero"></path>
                <path d="M105.293978,36.1246334 C105.293978,36.1246334 92.4044379,35.347869 93.910479,44.3908993 C93.910479,44.3908993 93.6085924,45.9885239 95.0569697,46.7144086 C95.0569697,46.7144086 95.0807136,46.0360117 96.3798436,46.2700587 C96.8434368,46.3496959 97.3150143,46.3724774 97.7841251,46.3378983 C98.4164887,46.2946052 99.0176597,46.0469942 99.4970772,45.6323656 L99.4970772,45.6323656 C99.4970772,45.6323656 103.123109,44.1331085 104.534174,38.2039198 C104.534174,38.2039198 105.578905,36.9115738 105.551769,36.5791593 L103.367331,37.508563 C103.367331,37.508563 104.110176,39.0790518 103.526755,40.3849658 C103.526755,40.3849658 103.455523,37.5662268 103.034917,37.6306745 C102.950117,37.6306745 101.905386,38.176784 101.905386,38.176784 C101.905386,38.176784 103.184164,40.9141153 102.217449,42.9018182 C102.217449,42.9018182 102.583783,39.5301857 101.505132,38.3735191 L99.971955,39.2690029 C99.971955,39.2690029 101.46782,42.0945259 100.453617,44.4010753 C100.453617,44.4010753 100.7148,40.8632356 99.6497165,39.4860899 L98.2590029,40.5715249 C98.2590029,40.5715249 99.6666764,43.3563441 98.8085044,45.2694233 C98.8085044,45.2694233 98.6965689,41.1515543 97.9605083,40.8394917 C97.9605083,40.8394917 96.7427859,41.9113587 96.5596188,42.3523167 C96.5596188,42.3523167 97.5229423,44.3875073 96.9225611,45.4424145 C96.9225611,45.4424145 96.5596188,42.6982991 96.2441642,42.6847312 C96.2441642,42.6847312 95.0332258,44.5028348 94.9077224,45.7375171 C94.9663694,44.586451 95.3253882,43.470803 95.9490616,42.501564 C95.2511521,42.6336061 94.6072611,42.9673446 94.0970381,43.4614956 C94.0970381,43.4614956 94.2835973,42.1759335 96.2509482,42.063998 C96.2509482,42.063998 97.2515836,40.6834604 97.5195503,40.6020528 C97.5195503,40.6020528 95.5623754,40.4358456 94.3785728,40.9616031 C94.3785728,40.9616031 95.423304,39.7506647 97.8757087,40.2832063 L99.2325024,39.1638514 C99.2325024,39.1638514 96.6613783,38.824653 95.5691593,39.2011632 C95.5691593,39.2011632 96.8275855,38.1292962 99.6022287,38.9094526 L101.098094,38.0173607 C101.098094,38.0173607 98.90348,37.5458749 97.597566,37.7154741 C97.597566,37.7154741 98.9747116,36.9726295 101.53566,37.7765298 L102.600743,37.29826 C102.600743,37.29826 100.996334,36.9828055 100.524848,36.9319257 C100.053363,36.8810459 100.029619,36.7521505 100.029619,36.7521505 C101.047939,36.5849085 102.09267,36.7022939 103.048485,37.091349 C103.048485,37.091349 105.338074,36.2670968 105.293978,36.1246334 Z" id="Path" fill="#F78500" fill-rule="nonzero"></path>
                <path d="M286.629462,73.293998 C286.629462,73.293998 273.739922,72.5172336 275.245963,81.5602639 C275.245963,81.5602639 274.944076,83.1578886 276.392454,83.8837732 C276.392454,83.8837732 276.416197,83.2053763 277.715327,83.4394233 C278.179122,83.5172053 278.650476,83.5399761 279.119609,83.507263 C279.746223,83.4610983 280.341128,83.2136179 280.815601,82.8017302 L280.815601,82.8017302 C280.815601,82.8017302 284.445024,81.3024731 285.852698,75.3732845 C285.852698,75.3732845 286.897429,74.0809384 286.870293,73.7485239 L284.692639,74.6779277 C284.692639,74.6779277 285.435484,76.2484164 284.852063,77.5543304 C284.852063,77.5543304 284.780831,74.7355914 284.363617,74.8000391 C284.278817,74.8000391 283.230694,75.3461486 283.230694,75.3461486 C283.230694,75.3461486 284.509472,78.08348 283.546149,80.0711828 C283.546149,80.0711828 283.912483,76.6995503 282.83044,75.5428837 L281.297263,76.4383675 C281.297263,76.4383675 282.793128,79.2638905 281.778925,81.5704399 C281.778925,81.5704399 282.040108,78.0326002 280.975024,76.6554545 L279.587703,77.7408895 C279.587703,77.7408895 280.991984,80.5257087 280.133812,82.4387879 C280.133812,82.4387879 280.021877,78.3209189 279.285816,78.0088563 C279.285816,78.0088563 278.071486,79.0807234 277.884927,79.5216813 C277.884927,79.5216813 278.84825,81.5568719 278.251261,82.6117791 C278.251261,82.6117791 277.884927,79.8676637 277.572864,79.8540958 C277.572864,79.8540958 276.361926,81.6721994 276.236422,82.9068817 C276.295144,81.7553289 276.655417,80.63942 277.281153,79.6709286 C276.582363,79.8032928 275.937471,80.1369392 275.425738,80.6308602 C275.425738,80.6308602 275.615689,79.3452981 277.579648,79.2333627 C277.579648,79.2333627 278.580283,77.852825 278.84825,77.7680254 C278.84825,77.7680254 276.894467,77.6052102 275.707273,78.1309677 C275.707273,78.1309677 276.752004,76.9200293 279.204409,77.4525709 L280.561202,76.333216 C280.561202,76.333216 277.986686,75.9940176 276.897859,76.3705279 C276.897859,76.3705279 278.152893,75.2986608 280.930929,76.0788172 L282.423402,75.1867253 C282.423402,75.1867253 280.228788,74.7152395 278.922874,74.8848387 C278.922874,74.8848387 280.30002,74.1419941 282.860968,74.9458944 L283.929443,74.4676246 C283.929443,74.4676246 282.321642,74.1521701 281.850156,74.1012903 C281.378671,74.0504106 281.354927,73.9215152 281.354927,73.9215152 C282.373191,73.7521234 283.418509,73.8695748 284.373793,74.2607136 C284.373793,74.2607136 286.670166,73.4364614 286.629462,73.293998 Z" id="Path" fill="#F78500" fill-rule="nonzero" opacity="0.1"></path>
                <path d="M127.002678,91.9906158 C127.002678,91.9906158 121.385552,80.3459335 114.235249,86.0851711 C114.235249,86.0851711 112.691896,86.6007527 112.76652,88.2187292 C112.76652,88.2187292 113.360117,87.9100587 113.784115,89.1583089 C113.9425,89.5995624 114.151965,90.0207704 114.40824,90.4133431 C114.755293,90.9454914 115.26605,91.3502874 115.863402,91.5666178 L115.863402,91.5666178 C115.863402,91.5666178 118.939932,94.0020626 124.804673,92.3399902 C124.804673,92.3399902 126.443001,92.6215249 126.710968,92.4247898 L124.838592,90.9764125 C124.838592,90.9764125 123.820997,92.39087 122.403148,92.5163734 C122.403148,92.5163734 124.831808,91.081564 124.570626,90.7491496 C124.516354,90.6813099 123.55303,90.0266569 123.55303,90.0266569 C123.55303,90.0266569 121.785806,92.4790616 119.581017,92.604565 C119.581017,92.604565 122.701642,91.2816911 123.183304,89.7722581 L121.656911,88.8699902 C121.656911,88.8699902 119.916823,91.5564418 117.410147,91.7938807 C117.410147,91.7938807 120.625748,90.2980156 121.307537,88.696999 L119.686168,88.0186022 C119.686168,88.0186022 117.939296,90.6032942 115.849834,90.7898534 C115.849834,90.7898534 119.391065,88.6834311 119.302874,87.8863148 C119.302874,87.8863148 117.773089,87.3503812 117.298211,87.401261 C117.298211,87.401261 116.002473,89.2295406 114.781359,89.2295406 C114.781359,89.2295406 116.996325,87.5708602 116.860645,87.3028935 C116.860645,87.3028935 114.682991,87.1332942 113.5365,87.6420919 C114.569608,87.1286066 115.719205,86.894711 116.870821,86.963695 C116.413944,86.4189025 115.808018,86.0192741 115.127341,85.8138123 C115.127341,85.8138123 116.341672,85.3525024 117.396579,87.0111828 C117.396579,87.0111828 119.092571,87.2113099 119.292698,87.404653 C119.292698,87.404653 118.482014,85.6204692 117.447458,84.8437048 C117.447458,84.8437048 119.014555,85.1591593 119.730264,87.5572923 L121.375376,88.2085533 C121.375376,88.2085533 120.429013,85.7934604 119.557273,85.0302639 C119.557273,85.0302639 121.104018,85.6035093 121.779022,88.4222483 L123.285064,89.2905963 C123.285064,89.2905963 122.630411,87.1434702 121.84347,86.088563 C121.84347,86.088563 123.162952,86.9297752 123.709062,89.5551711 L124.648641,90.2539198 C124.648641,90.2539198 124.139844,88.696999 123.970244,88.262825 C123.800645,87.828651 123.885445,87.7404594 123.885445,87.7404594 C124.530713,88.5457986 124.939398,89.5146638 125.065855,90.5388465 C125.065855,90.5388465 126.880567,92.0923754 127.002678,91.9906158 Z" id="Path" fill="#F78500" fill-rule="nonzero" opacity="0.1"></path>
                <path d="M257.180254,56.8428739 C257.180254,56.8428739 251.56652,45.1981916 244.412825,50.9374291 C244.412825,50.9374291 242.872864,51.4530108 242.944096,53.0709873 C242.944096,53.0709873 243.541085,52.7657087 243.961691,54.010567 C244.119786,54.4536276 244.330464,54.8761217 244.589208,55.2689932 C244.935013,55.8001424 245.444756,56.2038872 246.040978,56.4188759 L246.040978,56.4188759 C246.040978,56.4188759 249.120899,58.8543206 254.982248,57.1956403 C254.982248,57.1956403 256.620577,57.473783 256.891935,57.2770479 L255.029736,55.8252786 C255.029736,55.8252786 254.012141,57.2431281 252.597683,57.3686315 C252.597683,57.3686315 255.022952,55.9304301 254.761769,55.5980156 C254.707498,55.530176 253.744174,54.875523 253.744174,54.875523 C253.744174,54.875523 251.980342,57.3279277 249.77216,57.4534311 C249.77216,57.4534311 252.896178,56.1305572 253.37784,54.6245161 L251.827703,53.7290323 C251.827703,53.7290323 250.091007,56.4120919 247.580938,56.6529228 C247.580938,56.6529228 250.79654,55.1536657 251.48172,53.5526491 L249.85696,52.8742522 C249.85696,52.8742522 248.110088,55.4623363 246.024018,55.6455034 C246.024018,55.6455034 249.561857,53.5390811 249.473666,52.7453568 C249.473666,52.7453568 247.947273,52.2060313 247.472395,52.260303 C247.472395,52.260303 246.176657,54.0851906 244.952151,54.0851906 C244.952151,54.0851906 247.170508,52.4265103 247.034829,52.1585435 C247.034829,52.1585435 244.857175,51.9889443 243.707292,52.4977419 C244.740348,51.9841058 245.889986,51.750202 247.041613,51.8193451 C246.586447,51.2742058 245.981481,50.8744325 245.301525,50.6694624 C245.301525,50.6694624 246.515855,50.2081525 247.570762,51.8668328 C247.570762,51.8668328 249.266755,52.0703519 249.466882,52.263695 C249.466882,52.263695 248.656197,50.4761193 247.61825,49.6993548 C247.61825,49.6993548 249.185347,50.0182014 249.901056,52.4299022 L251.54956,53.0811632 C251.54956,53.0811632 250.603196,50.6626784 249.731457,49.8994819 C249.731457,49.8994819 251.278201,50.4727273 251.949814,53.2914663 L253.459247,54.1598143 C253.459247,54.1598143 252.801202,52.0160802 252.014262,50.957781 C252.014262,50.957781 253.337136,51.7989932 253.879853,54.4243891 L254.819433,55.1231378 C254.819433,55.1231378 254.314027,53.566217 254.141036,53.132043 C253.968045,52.697869 254.056237,52.6130694 254.056237,52.6130694 C254.699669,53.419155 255.107089,54.3878058 255.233255,55.4114565 C255.233255,55.4114565 257.075103,56.9514174 257.180254,56.8428739 Z" id="Path" fill="#F78500" fill-rule="nonzero" opacity="0.1"></path>
                <path d="M275.120459,114.44216 C275.120459,114.44216 269.506725,102.794086 262.342854,108.533324 C262.342854,108.533324 260.802893,109.048905 260.874125,110.666882 C260.874125,110.666882 261.471114,110.361603 261.89172,111.606461 C262.048715,112.049375 262.258252,112.471866 262.515846,112.864888 C262.86165,113.396037 263.371393,113.799782 263.967615,114.01477 L263.967615,114.01477 C263.967615,114.01477 267.047537,116.453607 272.912278,114.791535 C272.912278,114.791535 274.547214,115.073069 274.818573,114.872942 L272.946197,113.424565 C272.946197,113.424565 271.928602,114.842414 270.510753,114.967918 C270.510753,114.967918 272.936022,113.529717 272.674839,113.197302 C272.620567,113.129462 271.657243,112.474809 271.657243,112.474809 C271.657243,112.474809 269.893412,114.927214 267.68523,115.056109 C267.68523,115.056109 270.809247,113.729844 271.290909,112.223803 L269.761124,111.321535 C269.761124,111.321535 268.024428,114.007986 265.51436,114.245425 C265.51436,114.245425 268.729961,112.746168 269.415142,111.145152 L267.790381,110.466755 C267.790381,110.466755 266.043509,113.051447 263.957439,113.238006 C263.957439,113.238006 267.498671,111.131584 267.410479,110.334467 C267.410479,110.334467 265.880694,109.795142 265.405816,109.849413 C265.405816,109.849413 264.110078,111.674301 262.885572,111.674301 C262.885572,111.674301 265.10393,110.015621 264.96825,109.747654 C264.96825,109.747654 262.790596,109.578055 261.640714,110.086852 C262.675092,109.573537 263.825733,109.339667 264.978426,109.408456 C264.522618,108.862465 263.916303,108.462581 263.234946,108.258573 C263.234946,108.258573 264.449277,107.793871 265.504184,109.455943 C265.504184,109.455943 267.200176,109.65607 267.400303,109.849413 C267.400303,109.849413 266.589619,108.06523 265.555064,107.285073 C265.555064,107.285073 267.12216,107.60392 267.837869,110.015621 L269.482981,110.666882 C269.482981,110.666882 268.536618,108.248397 267.664878,107.488592 C267.664878,107.488592 269.211623,108.058446 269.883236,110.880577 L271.392669,111.745533 C271.392669,111.745533 270.734624,109.601799 269.947683,108.5435 C269.947683,108.5435 271.270557,109.384712 271.816667,112.0135 L272.756246,112.691896 C272.756246,112.691896 272.247449,111.134976 272.077849,110.700802 C271.90825,110.266628 271.99305,110.181828 271.99305,110.181828 C272.63803,110.986993 273.045643,111.956101 273.170068,112.980215 C273.170068,112.980215 275.015308,114.54392 275.120459,114.44216 Z" id="Path" fill="#F78500" fill-rule="nonzero" opacity="0.1"></path>
                <ellipse id="Oval" fill="#F78500" fill-rule="nonzero" opacity="0.1" cx="68.5011241" cy="265.114106" rx="7.79817204" ry="1"></ellipse>
                <ellipse id="Oval" fill="#F78500" fill-rule="nonzero" opacity="0.1" cx="17.3805279" cy="250.297918" rx="7.79817204" ry="1"></ellipse>
                <ellipse id="Oval" fill="#F78500" fill-rule="nonzero" opacity="0.1" cx="107.46824" cy="274.954252" rx="7.79817204" ry="1"></ellipse>
                <ellipse id="Oval" fill="#F78500" fill-rule="nonzero" opacity="0.1" cx="307.15436" cy="253.520303" rx="7.79817204" ry="1"></ellipse>
                <ellipse id="Oval" fill="#F78500" fill-rule="nonzero" opacity="0.1" cx="242.262307" cy="249.290499" rx="7.79817204" ry="1"></ellipse>
                <ellipse id="Oval" fill="#F78500" fill-rule="nonzero" opacity="0.1" cx="200.283109" cy="269.208231" rx="9.22280547" ry="1.5840567"></ellipse>
                <path d="M204.397586,253.286256 C204.397586,253.286256 191.555533,259.920978 198.190254,267.736109 C198.190254,267.736109 198.814379,269.432102 200.618915,269.313382 C200.618915,269.313382 200.259365,268.655337 201.63651,268.12958 C202.126528,267.940162 202.592247,267.693069 203.023832,267.393519 C203.607024,266.990348 204.04287,266.408029 204.265298,265.734839 L204.265298,265.734839 C204.265298,265.734839 206.890694,262.220743 204.855503,255.718309 C204.855503,255.718309 205.120078,253.879853 204.889423,253.581359 L203.32911,255.721701 C203.32911,255.721701 204.940303,256.803744 205.126862,258.394585 C205.126862,258.394585 203.43087,255.725093 203.091672,256.020196 C203.017048,256.081251 202.318299,257.19043 202.318299,257.19043 C202.318299,257.19043 205.113294,259.086549 205.320205,261.54913 C205.320205,261.54913 203.746325,258.099482 202.04694,257.607644 L201.073441,259.34434 C201.073441,259.34434 204.126227,261.203148 204.465425,263.998143 C204.465425,263.998143 202.691417,260.453519 200.880098,259.73781 L200.164389,261.572874 C200.164389,261.572874 203.108631,263.445249 203.37999,265.772151 C203.37999,265.772151 200.91741,261.881544 200.032102,262.003656 C200.032102,262.003656 199.475816,263.726784 199.55044,264.259326 C199.55044,264.259326 201.629726,265.650039 201.667038,267.017009 C201.667038,267.017009 199.747175,264.59174 199.452072,264.751163 C199.452072,264.751163 199.329961,267.19 199.920166,268.458602 C199.920166,268.458602 198.902571,266.647283 199.068778,264.751163 C198.473901,265.277223 198.045896,265.965803 197.837488,266.732082 C197.837488,266.732082 197.284594,265.392248 199.10609,264.157566 C199.10609,264.157566 199.279081,262.261447 199.489384,262.0274 C199.489384,262.0274 197.518641,262.990723 196.680821,264.171134 C196.680821,264.171134 196.989492,262.410694 199.662375,261.535562 L200.340772,259.676755 C200.340772,259.676755 197.667889,260.809677 196.843636,261.806921 C196.843636,261.806921 197.437234,260.060049 200.551075,259.222229 L201.473695,257.526237 C201.473695,257.526237 199.099306,258.326745 197.939247,259.222229 C197.939247,259.222229 198.838123,257.71958 201.758622,257.027615 L202.50825,255.95914 C202.50825,255.95914 200.785122,256.573089 200.30346,256.793568 C199.821799,257.014047 199.726823,256.905503 199.726823,256.905503 C200.607255,256.160784 201.676888,255.674694 202.816921,255.501222 C202.816921,255.501222 204.516305,253.401584 204.397586,253.286256 Z" id="Path" fill="#F78500" fill-rule="nonzero"></path>
                <path d="M242.513314,127.976178 C240.294956,121.948622 228.083812,121.38216 222.785533,122.918729 C219.02043,124.01434 211.083187,125.249022 206.843206,125.869756 L206.568456,125.608573 C207.117957,125.445758 207.131525,125.045503 207.063685,124.451906 C207.024197,123.669579 207.035527,122.885513 207.097605,122.104653 C209.695865,122.911945 212.009198,121.002258 212.009198,121.002258 L212.009198,121.002258 C215.061984,119.645464 214.241124,113.838387 214.824545,112.250938 C215.262111,111.063744 215.733597,104.069472 215.9439,100.582512 L215.987996,100.582512 L216.01174,99.4122776 C216.042268,98.9068719 216.055836,98.6117693 216.055836,98.6117693 C216.055836,98.6117693 216.35433,90.0843206 216.937752,88.3578006 C217.480469,86.7703519 217.921427,78.7720528 217.989267,77.5034506 C217.989267,77.3949071 217.989267,77.3372434 217.989267,77.3372434 L217.945171,76.5977908 C217.975699,76.0584653 217.989267,75.4580841 217.985875,74.827175 C217.985875,71.9270283 217.683988,68.2738612 217.646676,67.6836559 C217.646676,67.5988563 217.646676,67.4970968 217.646676,67.3749853 C217.67042,66.136911 217.514389,59.9363636 212.239853,57.5925024 C210.296246,56.7241544 207.959169,55.6895992 205.696716,54.6821799 C205.113294,49.6450831 203.780244,44.6351222 203.895572,39.5607136 C203.895572,38.7975171 203.963412,38.0343206 204.038035,37.2745161 C204.038035,37.4949951 204.014291,37.7188661 204.010899,37.952913 C204.010899,38.4447507 204.010899,38.9399804 204.010899,39.4318182 C204.211026,33.0854154 206.609159,26.7050929 206.385288,20.4943695 C206.364936,21.1015347 206.320841,21.7120919 206.263177,22.3226491 C206.380287,20.2219332 206.16042,18.1160125 205.611916,16.0847898 C205.408397,15.3690811 205.133646,14.6296285 204.546833,14.1513587 C203.99216,13.7661742 203.356032,13.5142769 202.688025,13.4152981 C201.082946,13.0044506 199.452329,12.7007637 197.80696,12.5062463 C197.556934,11.7409257 197.185897,11.0206097 196.707957,10.3726882 C193.268485,5.65104594 188.173724,1.2143304 182.14956,0.196735093 C179.127302,-0.312062561 175.650518,0.111935484 173.594976,2.27262952 C173.380313,2.46244119 173.178604,2.6664167 172.991202,2.88318671 C171.885415,4.20266862 171.410538,5.93597263 170.277615,7.25206256 C170.202991,7.34025415 170.118192,7.42166178 170.036784,7.50646139 C167.818426,9.49077224 164.361994,9.90459433 161.896022,11.6853861 C161.461506,12.0050667 161.054208,12.3601769 160.678299,12.7470772 C159.68466,13.7317433 158.793645,14.8148264 158.018983,15.9796383 C156.909804,17.5399511 155.770098,19.1647116 155.417331,21.026911 C154.708407,24.7580938 157.249003,28.2959335 157.720489,32.0508602 C158.772004,40.4528055 149.474575,47.9083871 151.235015,56.1983969 C151.704764,58.2350035 152.742089,60.0967769 154.226745,61.5679081 C150.600714,64.851349 147.514008,68.0364223 147.514008,68.0364223 L147.514008,68.2263734 L146.940762,68.2263734 L146.998426,68.9047703 L146.940762,68.9047703 L147.256217,72.5850733 L146.940762,77.9444086 C146.940762,77.9444086 146.940762,78.0020723 146.940762,78.1106158 L146.940762,78.1377517 L146.940762,78.283607 C146.940762,78.283607 146.940762,78.3412708 146.940762,78.4498143 L146.961114,78.4498143 C147.066266,80.4137732 147.48348,87.4758847 147.97871,88.9649658 C148.562131,90.6914858 148.857234,99.2189345 148.857234,99.2189345 C148.857234,99.2189345 149.501711,111.270655 150.091916,112.864888 C150.682121,114.45912 149.844301,120.249238 152.907263,121.616207 L152.907263,121.616207 C153.803318,122.303542 154.864253,122.743356 155.983793,122.891593 C155.827761,124.160196 155.926129,125.079423 156.431535,125.367742 C156.647862,125.494916 156.892991,125.564953 157.143851,125.571261 C156.93604,125.87947 156.751241,126.202585 156.590958,126.537977 C155.375211,126.411047 154.18063,126.1295 153.036158,125.700156 C149.745934,124.343363 138.827136,121.290577 135.65563,123.437703 C132.484125,125.584829 124.85216,127.531828 128.376432,136.174604 C131.900704,144.81738 133.542424,145.034467 133.542424,145.034467 C134.627235,145.821975 135.578874,146.778194 136.361163,147.866774 C137.419462,149.457615 147.279961,153.097214 149.745934,153.097214 C150.794073,153.081067 151.842153,153.133187 152.883519,153.253245 C152.883519,153.253245 150.207243,155.600499 150.563402,156.964076 C150.91956,158.327654 149.749326,169.24306 149.749326,169.24306 C149.749326,169.24306 152.462913,171.976999 153.622972,168.391672 L153.663675,168.445943 C153.880762,168.741046 155.054389,170.074096 157.262571,168.391672 C158.166298,167.706042 159.126239,167.097852 160.13219,166.573568 L170.823724,165.060743 C171.938395,164.991072 173.056067,164.983146 174.171613,165.036999 C175.867605,165.17607 177.533069,164.172043 178.581193,163.395279 C180.796158,164.236491 183.285875,165.155718 184.469677,165.491525 C186.871202,166.169922 197.908719,169.131124 200.49002,168.205112 C201.026585,167.991765 201.503683,167.651978 201.880733,167.214653 L204.343314,167.292669 L203.190039,167.523324 C203.190039,167.523324 205.435533,167.560635 208.488319,167.601339 L208.359423,167.675963 L212.188974,167.642043 C217.792532,167.692923 224.088055,167.709883 224.915699,167.523324 C226.211437,167.235005 232.944526,167.438524 234.928837,167.523324 L235.48173,167.523324 C235.48173,167.523324 242.879648,166.04781 239.826862,158.541349 C237.479609,152.774976 230.264858,151.099335 227.062825,150.638025 C227.965093,150.45825 228.741857,150.319179 229.257439,150.237771 C231.492757,149.898573 235.834497,147.863382 236.187263,147.168025 C236.540029,146.472669 240.179629,144.454438 241.119208,143.304555 C242.058788,142.154673 244.741848,134.003734 242.513314,127.976178 Z M181.237116,144.844516 L180.874174,144.963236 L180.629951,145.044643 L180.161857,145.505953 C179.788739,145.254946 179.388485,144.990371 178.971271,144.719013 C179.707331,144.763109 180.463744,144.807204 181.237116,144.844516 Z" id="Shape" fill="url(#linearGradient-1)" fill-rule="nonzero"></path>
                <path d="M202.864409,109.079433 C202.864409,109.079433 208.054145,122.64737 211.005171,121.290577 C213.956197,119.933783 213.155689,114.16741 213.718759,112.586745 C214.281828,111.00608 214.905953,99.0188074 214.905953,99.0188074 C214.905953,99.0188074 215.19088,90.5388465 215.753949,88.8225024 C216.276315,87.2452297 216.700313,79.2910264 216.771544,78.0393842 C216.771544,77.9308407 216.771544,77.8731769 216.771544,77.8731769 L216.211867,68.0364223 L213.043754,67.2460899 L205.696716,69.9596774 L204.67912,75.7701466 L204.282258,78.0393842 L204.112659,79.0060997 L202.864409,109.079433 Z" id="Path" fill="#BE6F72" fill-rule="nonzero"></path>
                <path d="M204.573969,106.806804 C204.573969,106.806804 209.526266,110.860225 211.018739,111.216383 C212.511212,111.572542 213.427048,114.733871 213.427048,114.733871" id="Path" fill="#000000" fill-rule="nonzero" opacity="0.1"></path>
                <path d="M162.279316,109.67303 C162.279316,109.67303 157.08958,123.240968 154.138553,121.884174 C151.187527,120.52738 151.988035,114.761007 151.424966,113.180342 C150.861896,111.599677 150.237771,99.6124047 150.237771,99.6124047 C150.237771,99.6124047 149.952845,91.1324438 149.389775,89.4160997 C148.86741,87.838827 148.443412,79.8846237 148.37218,78.6329814 C148.37218,78.5244379 148.37218,78.4667742 148.37218,78.4667742 L148.935249,68.6300196 L152.103363,67.8396872 L159.450401,70.5532747 L160.467996,76.3637439 L160.864858,78.6329814 L161.034457,79.599697 L162.279316,109.67303 Z" id="Path" fill="#BE6F72" fill-rule="nonzero"></path>
                <rect id="Rectangle" fill="#3E373A" fill-rule="nonzero" x="184.490029" y="37.0642131" width="11.5836266" height="18.0555327"></rect>
                <rect id="Rectangle" fill="#000000" fill-rule="nonzero" opacity="0.1" x="184.490029" y="37.0642131" width="11.5836266" height="18.0555327"></rect>
                <path d="M160.244125,123.186696 C160.244125,123.186696 156.285679,127.538612 157.754409,128.328944 C159.223138,129.119277 168.724086,143.932072 168.724086,143.932072 C168.724086,143.932072 199.930342,147.775191 205.815435,142.008817 C211.700528,136.242444 211.581987,125.940987 211.581987,125.940987 C211.581987,125.940987 206.853382,126.958583 206.337801,126.405689 C205.822219,125.852796 202.989912,123.186696 202.989912,123.186696 C202.989912,123.186696 162.957713,120.758035 160.244125,123.186696 Z" id="Path" fill="#4B4B5B" fill-rule="nonzero"></path>
                <path d="M160.244125,123.186696 C160.244125,123.186696 156.285679,127.538612 157.754409,128.328944 C159.223138,129.119277 168.724086,143.932072 168.724086,143.932072 C168.724086,143.932072 199.930342,147.775191 205.815435,142.008817 C211.700528,136.242444 211.581987,125.940987 211.581987,125.940987 C211.581987,125.940987 206.853382,126.958583 206.337801,126.405689 C205.822219,125.852796 202.989912,123.186696 202.989912,123.186696 C202.989912,123.186696 162.957713,120.758035 160.244125,123.186696 Z" id="Path" fill="#000000" fill-rule="nonzero" opacity="0.02"></path>
                <path d="M216.42217,68.1788856 L206.246217,76.3196481 L203.169687,76.5435191 L202.040156,76.6249267 L183.068788,78.0156403 L163.395279,76.5774389 L160.467996,76.3637439 L156.736813,76.0923851 L148.935249,68.6300196 C148.935249,68.6300196 154.4574,62.7143988 159.29437,58.7220332 C161.200665,57.1447605 163.001808,55.8693744 164.314506,55.3673607 L164.538377,55.2893451 C165.364047,54.9673535 166.101206,54.4534355 166.688895,53.790088 C170.50827,49.8519941 174.039326,40.1339589 174.039326,40.1339589 C174.039326,40.1339589 190.887312,31.4301271 188.852121,42.8475464 C186.816931,54.2649658 196.426422,51.4428348 196.426422,51.4428348 L199.594536,52.8878201 L200.846178,53.4610655 L204.038035,54.9230108 L211.239218,58.2268035 C216.890264,60.8284555 216.42217,68.1788856 216.42217,68.1788856 Z" id="Path" fill="#BE6F72" fill-rule="nonzero"></path>
                <circle id="Oval" fill="#000000" fill-rule="nonzero" opacity="0.1" cx="182.278456" cy="34.2793939" r="15.1519941"></circle>
                <path d="M216.445914,78.9721799 L148.37218,78.9721799 C148.37218,78.8636364 148.37218,78.8059726 148.37218,78.8059726 L148.935249,68.969218 C148.935249,68.969218 154.4574,63.0535973 159.29437,59.0612317 L202.033372,57.3652395 L204.021075,55.2689932 L211.222258,58.5727859 C216.876696,61.1710459 216.42217,68.5214761 216.42217,68.5214761 C216.42217,68.5214761 217.195543,77.0387488 216.445914,78.9721799 Z" id="Path" fill="#000000" fill-rule="nonzero" opacity="0.1"></path>
                <path d="M216.445914,78.6329814 L148.37218,78.6329814 C148.37218,78.5244379 148.37218,78.4667742 148.37218,78.4667742 L148.935249,68.6300196 C148.935249,68.6300196 154.4574,62.7143988 159.29437,58.7220332 L202.033372,57.0260411 L204.021075,54.9297947 L211.222258,58.2335875 C216.876696,60.8318475 216.42217,68.1822776 216.42217,68.1822776 C216.42217,68.1822776 217.195543,76.6995503 216.445914,78.6329814 Z" id="Path" fill="#E7C7CA" fill-rule="nonzero"></path>
                <path d="M171.366442,51.0493646 C171.366442,51.0493646 182.105464,64.7326295 196.409462,50.7678299 C210.71346,36.8030303 197.993519,81.9164223 197.993519,81.9164223 L167.126461,85.5797654 L171.366442,51.0493646 Z" id="Path" fill="#000000" fill-rule="nonzero" opacity="0.1"></path>
                <path d="M171.366442,51.7277615 C171.366442,51.7277615 182.105464,65.4110264 196.409462,51.4462268 C210.71346,37.4814272 197.993519,82.5948192 197.993519,82.5948192 L167.126461,86.2581623 L171.366442,51.7277615 Z" id="Path" fill="#E7C7CA" fill-rule="nonzero"></path>
                <path d="M200.829218,54.1292864 L201.965533,71.4589345 L203.183255,77.2253079 L204.112659,81.6348876 C204.112659,81.6348876 206.487048,115.554731 205.808651,117.250723 C205.130254,118.946716 206.147849,120.303509 206.290313,121.205777 C206.432776,122.108045 206.147849,124.373891 206.259785,125.391486 C206.37172,126.409081 206.259785,126.860215 203.661525,126.497273 C201.063265,126.13433 197.440626,125.503421 197.440626,125.503421 C197.440626,125.503421 188.282268,126.181818 185.117546,125.052287 C181.952825,123.922757 175.959189,123.919365 175.959189,123.919365 C175.959189,123.919365 166.912766,124.146628 163.975308,123.807429 C161.037849,123.468231 159.450401,127.426676 157.530538,126.293754 C155.610674,125.160831 159.789599,114.197937 161.146393,111.029824 C162.503187,107.861711 159.338465,99.8362757 159.338465,99.8362757 L163.408847,77.2558358 L164.314506,72.1373314 L164.314506,56.0457576 L164.538377,55.9677419 C165.364047,55.6457504 166.101206,55.1318324 166.688895,54.4684848 L167.706491,70.6618182 L199.591144,71.794741 L199.591144,53.569609" id="Path" fill="#000000" fill-rule="nonzero" opacity="0.1"></path>
                <path d="M200.829218,53.4508895 L201.965533,70.7805376 L203.183255,76.546911 L204.112659,80.9564907 C204.112659,80.9564907 206.487048,114.876334 205.808651,116.572326 C205.130254,118.268319 206.147849,119.625112 206.290313,120.52738 C206.432776,121.429648 206.147849,123.695494 206.259785,124.713089 C206.37172,125.730684 206.259785,126.181818 203.661525,125.818876 C201.063265,125.455934 197.440626,124.825024 197.440626,124.825024 C197.440626,124.825024 188.282268,125.503421 185.117546,124.373891 C181.952825,123.24436 175.959189,123.240968 175.959189,123.240968 C175.959189,123.240968 166.912766,123.468231 163.975308,123.129032 C161.037849,122.789834 159.450401,126.74828 157.530538,125.615357 C155.610674,124.482434 159.789599,113.519541 161.146393,110.351427 C162.503187,107.183314 159.338465,99.1578788 159.338465,99.1578788 L163.408847,76.5774389 L164.314506,71.4589345 L164.314506,55.3673607 L164.538377,55.2893451 C165.364047,54.9673535 166.101206,54.4534355 166.688895,53.790088 L167.706491,69.9834213 L199.591144,71.1163441 L199.591144,52.8912121" id="Path" fill="#E7C7CA" fill-rule="nonzero"></path>
                <path d="M204.495953,17.2855523 C204.30261,16.5766276 204.034643,15.840567 203.478358,15.3656891 C202.94716,14.9842626 202.333616,14.7332675 201.68739,14.6330205 C200.140232,14.226185 198.567265,13.9247375 196.979316,13.7307527 C196.752469,12.9775651 196.409114,12.2645314 195.96172,11.6175464 C192.637576,6.92304008 187.719198,2.49650049 181.932473,1.4958651 C178.903431,0.970107527 175.392727,1.44159335 173.452512,3.82955034 C172.387429,5.14224829 171.929511,6.88233627 170.854252,8.17129032 C168.78175,10.6745748 165.040391,10.9832454 162.428563,12.9200684 C161.034457,13.9376637 160.023646,15.4131769 159.036579,16.8445943 C157.968104,18.3947312 156.869101,20.0093157 156.529902,21.8613392 C155.851505,25.5619941 158.297126,29.0896579 158.74826,32.8242326 C159.765855,41.1786901 150.811017,48.590176 152.503617,56.8326979 C153.490684,61.6391398 157.930792,65.0243402 162.523539,66.7406843 C164.141515,67.3478495 165.990147,67.9516227 166.746559,69.5051515 C167.085758,70.1835484 167.143421,70.9670968 167.462268,71.6522776 C168.534135,73.9384751 172.058407,74.0266667 173.951134,72.3612023 C175.843861,70.695738 176.44085,68.0025024 176.664721,65.489042 C177.573773,54.5125806 173.177761,43.6684066 173.689951,32.6648094 C173.84259,29.3372727 174.778778,25.5619941 177.760332,24.0559531 C181.77305,22.0207625 186.599844,25.4127468 191.016207,24.7648778 C193.106088,29.8499308 193.549747,35.4620942 192.284809,40.8123558 C191.582669,43.7396383 190.368338,46.5787292 190.280147,49.5975953 C190.147859,54.1937341 192.6274,58.3930108 194.771134,62.456608 C195.23112,63.2164929 195.538732,64.05868 195.676794,64.9361486 C195.710537,65.8264462 195.544811,66.7130255 195.19174,67.5310166 C193.980802,70.7907136 191.891339,73.8163636 191.6539,77.2863636 C191.584321,77.691426 191.675598,78.1076494 191.908299,78.4464223 C192.147286,78.6725233 192.455693,78.8111871 192.783431,78.8398925 C196.446774,79.4674096 199.614888,76.2212805 201.402463,72.9615836 C203.395461,69.3612767 204.556807,65.3603127 204.801232,61.2524536 C205.170958,54.3463734 202.694809,47.5522287 202.847449,40.6393646 C203.023832,32.7801369 206.575239,24.8666373 204.495953,17.2855523 Z" id="Path" fill="#000000" fill-rule="nonzero" opacity="0.1"></path>
                <path d="M204.835152,16.9463539 C204.641808,16.2374291 204.373842,15.5013685 203.817556,15.0264907 C203.286358,14.6450642 202.672815,14.3940691 202.026588,14.2938221 C200.47943,13.8869866 198.906464,13.5855391 197.318514,13.3915543 C197.091668,12.6383667 196.748313,11.925333 196.300919,11.278348 C192.976774,6.58384164 188.058397,2.15730205 182.271672,1.15666667 C179.24263,0.630909091 175.731926,1.10239492 173.791711,3.49035191 C172.726628,4.80304985 172.26871,6.54313783 171.193451,7.83209189 C169.120948,10.3353763 165.379589,10.6440469 162.767761,12.58087 C161.373656,13.5984653 160.362845,15.0739785 159.375777,16.5053959 C158.307302,18.0555327 157.208299,19.6701173 156.869101,21.5221408 C156.190704,25.2227957 158.636325,28.7504594 159.087458,32.4850342 C160.105054,40.8394917 151.150215,48.2509775 152.842815,56.4934995 C153.829883,61.2999413 158.26999,64.6851417 162.862737,66.4014858 C164.480714,67.008651 166.329345,67.6124242 167.085758,69.1659531 C167.424956,69.84435 167.48262,70.6278983 167.801466,71.3130792 C168.873333,73.5992766 172.397605,73.6874682 174.290332,72.0220039 C176.18306,70.3565396 176.780049,67.663304 177.00392,65.1498436 C177.912972,54.1733822 173.51696,43.3292082 174.02915,32.3256109 C174.181789,28.9980743 175.117977,25.2227957 178.099531,23.7167546 C182.112248,21.681564 186.939042,25.0735484 191.355406,24.4256794 C193.445286,29.5107324 193.888945,35.1228958 192.624008,40.4731574 C191.921867,43.4004399 190.707537,46.2395308 190.619345,49.2583969 C190.487058,53.8545357 192.966598,58.0538123 195.110332,62.1174096 C195.570319,62.8772945 195.87793,63.7194815 196.015992,64.5969501 C196.049736,65.4872478 195.884009,66.373827 195.530938,67.1918182 C194.32,70.4515152 192.230538,73.4771652 191.993099,76.9471652 C191.92352,77.3522275 192.014797,77.768451 192.247498,78.1072239 C192.486484,78.3333249 192.794891,78.4719887 193.12263,78.500694 C196.785973,79.1282111 199.954086,75.8820821 201.741662,72.6223851 C203.73466,69.0220783 204.896006,65.0211143 205.14043,60.9132551 C205.510156,54.007175 203.034008,47.2130303 203.186647,40.3001662 C203.36303,32.4409384 206.914438,24.5274389 204.835152,16.9463539 Z" id="Path" fill="#3E373A" fill-rule="nonzero"></path>
                <polygon id="Path" fill="#C3C7D9" fill-rule="nonzero" points="197.342258 167.133245 210.79826 167.564027 208.868221 157.584809 198.55998 158.565093"></polygon>
                <path d="M239.03653,143.480938 C238.13087,144.610469 234.62695,146.64566 234.287752,147.324057 C233.948553,148.002454 229.766237,150.037644 227.615718,150.376843 C225.4652,150.716041 218.684624,152.188162 217.439765,152.978495 C216.547674,153.548348 209.387195,155.352884 204.682512,156.353519 C203.40821,156.654993 202.118491,156.88712 200.819042,157.048876 C198.783851,157.160811 176.512082,149.58651 176.512082,149.58651 L180.806334,145.176931 L181.043773,145.095523 C182.258104,144.685093 187.868446,142.788974 190.982287,141.886706 C194.489599,140.86911 198.55998,136.686794 198.55998,136.686794 C198.55998,136.686794 204.550225,134.651603 205.343949,134.42434 C206.137674,134.197077 203.308759,126.510841 203.308759,126.510841 C203.308759,126.510841 216.310235,124.706305 221.398211,123.17652 C226.486188,121.646735 238.246197,122.213196 240.393324,128.206833 C242.54045,134.200469 239.955758,142.351408 239.03653,143.480938 Z" id="Path" fill="#4B4B5B" fill-rule="nonzero"></path>
                <path d="M179.788739,162.587986 C179.788739,162.587986 177.190479,165.301574 174.588827,165.077703 C171.987175,164.853832 162.889873,165.7561 162.889873,165.7561 C161.241253,166.41371 159.697455,167.308451 158.307302,168.412023 C156.180528,170.087664 155.050997,168.751222 154.840694,168.466295 L154.803382,168.412023 C153.670459,171.976999 151.072199,169.26002 151.072199,169.26002 C151.072199,169.26002 152.20173,158.40567 151.855748,157.048876 C151.509765,155.692082 154.091065,153.361789 154.091065,153.361789 L157.143851,152.585024 L164.877576,150.604106 L175.959189,154.447224 L179.788739,162.587986 Z" id="Path" fill="#E7C7CA" fill-rule="nonzero"></path>
                <path d="M157.130283,152.585024 L154.840694,168.466295 L154.803382,168.412023 C153.670459,171.976999 151.072199,169.26002 151.072199,169.26002 C151.072199,169.26002 152.20173,158.40567 151.855748,157.048876 C151.509765,155.692082 154.091065,153.361789 154.091065,153.361789 L157.130283,152.585024 Z" id="Path" fill="#000000" fill-rule="nonzero" opacity="0.1"></path>
                <path d="M173.133666,107.410577 C173.133666,107.410577 179.12391,109.445767 184.327214,107.410577" id="Path" fill="#000000" fill-rule="nonzero" opacity="0.1"></path>
                <path d="M193.583939,111.257087 C193.583939,111.257087 196.070264,112.498553 197.993519,111.257087" id="Path" fill="#000000" fill-rule="nonzero" opacity="0.1"></path>
                <path d="M193.583939,114.201329 C193.583939,114.201329 197.766256,114.761007 198.55998,113.631476" id="Path" fill="#000000" fill-rule="nonzero" opacity="0.1"></path>
                <path d="M192.227146,120.52738 C192.227146,120.52738 200.082981,119.509785 202.033372,118.152991" id="Path" fill="#000000" fill-rule="nonzero" opacity="0.1"></path>
                <path d="M168.255992,118.152991 C168.255992,118.152991 172.665572,120.639316 175.945621,120.52738" id="Path" fill="#000000" fill-rule="nonzero" opacity="0.1"></path>
                <path d="M204.67912,156.353519 C203.404818,156.654993 202.115099,156.88712 200.81565,157.048876 C198.780459,157.160811 176.50869,149.58651 176.50869,149.58651 L180.802942,145.176931 L181.040381,145.095523 C181.718778,145.573793 182.275064,145.984223 182.671926,146.296285 C184.540909,147.768407 186.345445,145.845152 187.023842,145.845152 C187.702239,145.845152 193.580547,150.705865 193.580547,150.705865 C193.580547,150.705865 199.007722,151.950723 199.913382,153.080254 C200.819042,154.209785 203.983763,153.985914 204.546833,154.776246 C204.716432,155.020469 204.736784,155.62085 204.67912,156.353519 Z" id="Path" fill="#000000" fill-rule="nonzero" opacity="0.1"></path>
                <path d="M162.889873,126.972151 C162.889873,126.972151 157.401642,127.287605 154.236921,125.954555 C151.072199,124.621505 140.557048,121.544976 137.504262,123.70567 C134.451476,125.866364 127.101046,127.776051 130.49303,136.371339 C133.885015,144.966628 135.469071,145.190499 135.469071,145.190499 C136.518566,145.977535 137.434774,146.928101 138.182659,148.005846 C139.200254,149.589902 148.69781,153.205758 151.072199,153.205758 C153.446588,153.205758 157.628905,153.205758 163.507214,157.276139 C169.385523,161.34652 174.700762,161.801046 174.700762,161.801046 C174.700762,161.801046 182.163128,164.853832 184.486637,165.532229 C186.810147,166.210626 197.427058,169.148084 199.916774,168.245816 C202.406491,167.343548 203.987155,161.685718 203.987155,161.685718 C203.987155,161.685718 205.116686,156.597742 204.550225,155.80741 C203.983763,155.017077 200.819042,155.240948 199.916774,154.111417 C199.014506,152.981887 193.583939,151.737028 193.583939,151.737028 C193.583939,151.737028 187.719198,146.872923 187.040802,146.872923 C186.362405,146.872923 184.557869,148.792786 182.688886,147.324057 C178.965873,144.566518 175.054401,142.072968 170.983148,139.861691 C166.688895,137.599238 162.889873,126.972151 162.889873,126.972151 Z" id="Path" fill="#4B4B5B" fill-rule="nonzero"></path>
                <path d="M151.855748,130.252199 C153.836557,129.847523 155.892729,130.390733 157.41521,131.720929 C160.128798,133.983382 169.26002,138.525249 169.26002,138.525249" id="Path" fill="#000000" fill-rule="nonzero" opacity="0.1"></path>
                <path d="M219.702219,130.109736 C219.702219,130.109736 207.603011,131.941408 205.343949,134.427732" id="Path" fill="#000000" fill-rule="nonzero" opacity="0.1"></path>
                <path d="M233.609355,167.564027 L233.076813,167.564027 C231.163734,167.496188 224.681652,167.292669 223.433402,167.564027 C221.964673,167.903226 202.515034,167.564027 202.515034,167.564027 L206.317449,166.773695 C206.317449,166.773695 204.906383,161.828182 205.801867,161.417752 C205.801867,161.417752 200.713891,158.066471 204.550225,155.804018 C208.386559,153.541564 212.521388,154.494712 212.521388,154.494712 L222.151232,151.231623 L223.999863,150.604106 C223.999863,150.604106 234.854213,151.170567 237.791672,158.632933 C240.72913,166.095298 233.609355,167.564027 233.609355,167.564027 Z" id="Path" fill="#E7C7CA" fill-rule="nonzero"></path>
                <path d="M233.609355,167.564027 L233.076813,167.564027 C236.234751,164.958983 243.37827,157.028524 222.151232,151.248583 L223.999863,150.621065 C223.999863,150.621065 234.854213,151.187527 237.791672,158.649892 C240.72913,166.112258 233.609355,167.564027 233.609355,167.564027 Z" id="Path" fill="#000000" fill-rule="nonzero" opacity="0.1"></path>
                <circle id="Oval" fill="#4B4B5B" fill-rule="nonzero" cx="213.654311" cy="158.178407" r="1"></circle>
                <circle id="Oval" fill="#4B4B5B" fill-rule="nonzero" cx="210.204663" cy="159.15869" r="1"></circle>
                <g id="Group" opacity="0.1" transform="translate(152.639296, 21.030303)" fill="#000000" fill-rule="nonzero">
                    <path d="M40.7580841,12.6894135 C40.8896341,8.95850738 40.2259436,5.24230312 38.811085,1.78757576 C34.4015054,2.44562072 29.5713196,-0.956539589 25.5552102,1.07865103 C22.5838319,2.58469208 21.6510362,6.35997067 21.4848289,9.68750733 C21.4441251,10.5660313 21.4373412,11.4445552 21.4543011,12.3230792 C21.4543011,12.0110166 21.4543011,11.6955621 21.4848289,11.3834995 C21.6408602,8.05596285 22.5736559,4.28068426 25.5552102,2.77464321 C29.5713196,0.73945259 34.3947214,4.13143695 38.811085,3.48356794 C40.0093186,6.40984924 40.6689153,9.52856947 40.7580841,12.6894135 Z" id="Path"></path>
                    <path d="M6.58723363,12.0686804 C6.64532995,11.3295713 6.6305602,10.5865391 6.54313783,9.85032258 C6.18358749,6.86537634 4.55204301,4.0127175 4.25694037,1.10239492 C3.87703812,4.61309873 6.11235582,7.98473118 6.54313783,11.5463148 C6.58723363,11.7294819 6.58723363,11.8922972 6.58723363,12.0686804 Z" id="Path"></path>
                    <path d="M24.4595992,42.508348 C24.2492962,45.0252004 23.6556989,47.715044 21.7460117,49.3839003 C19.8363245,51.0527566 16.3188368,50.961173 15.2571457,48.6749756 C14.9179472,47.9965787 14.8670674,47.2062463 14.538045,46.5278495 C13.7850244,44.9743206 11.933001,44.3705474 10.3150244,43.7633822 C5.71888563,42.0436461 1.28556207,38.6754057 0.298494624,33.8553959 C0.210317571,33.4187402 0.150268982,32.9768732 0.118719453,32.532522 C0.0353031897,33.5422457 0.0958336432,34.5587005 0.298494624,35.5513881 C1.28556207,40.3578299 5.7256696,43.7396383 10.3150244,45.4593744 C11.933001,46.0665396 13.7850244,46.6703128 14.538045,48.2238416 C14.8772434,48.9022385 14.9349071,49.6857869 15.2571457,50.3709677 C16.3256207,52.6571652 19.8498925,52.7453568 21.7460117,51.0798925 C23.642131,49.4144282 24.2323363,46.7211926 24.4595992,44.2043402 C24.5628712,42.8796228 24.5979681,41.550472 24.5647507,40.2221505 C24.5647507,40.992131 24.5206549,41.7519355 24.4595992,42.508348 Z" id="Path"></path>
                    <path d="M50.6592864,17.6620626 C50.6592864,18.1539003 50.6592864,18.642346 50.6592864,19.1307918 C50.8492375,12.8217009 53.1625709,6.47869013 52.9353079,0.301886608 C52.7589247,6.01398827 50.7881818,11.8549853 50.6592864,17.6620626 Z" id="Path"></path>
                    <path d="M43.380088,43.1833529 C43.4635208,42.7808802 43.4897846,42.3686533 43.4581036,41.9588465 C43.321486,41.0810049 43.0137749,40.238545 42.5524438,39.479306 C40.5918768,35.7481232 38.3565591,31.9287488 38.0919844,27.7871359 C38.0919844,27.9635191 38.0682405,28.1263343 38.0648485,28.3162854 C37.9291691,32.9090323 40.4087097,37.1117009 42.5524438,41.1752981 C42.9167781,41.8046778 43.1951362,42.4800386 43.380088,43.1833529 L43.380088,43.1833529 Z" id="Path"></path>
                    <path d="M52.6096774,38.2751515 C52.3564618,42.3846132 51.1870646,46.3853656 49.1871652,49.9842815 C47.3961975,53.2439785 44.2314761,56.4901075 40.564741,55.8625904 C40.2362282,55.8342788 39.9273489,55.6942056 39.689609,55.4657283 C39.6207181,55.3880407 39.5666807,55.2983616 39.5301857,55.2011535 C39.4894819,55.4657283 39.4555621,55.733695 39.4352102,56.0050538 C39.3650774,56.4090514 39.4564368,56.8244321 39.689609,57.1617204 C39.9273489,57.3901978 40.2362282,57.530271 40.564741,57.5585826 C44.2314761,58.1860997 47.3961975,54.9399707 49.1871652,51.6802737 C51.1870646,48.0813578 52.3564618,44.0806053 52.6096774,39.9711437 C52.6503812,39.1774194 52.6537732,38.387087 52.6300293,37.5967546 C52.6232454,37.8240176 52.6232454,38.0478886 52.6096774,38.2751515 Z" id="Path"></path>
                </g>
                <path d="M205.801867,161.417752 C205.801867,161.417752 214.386979,165.020039 220.048201,157.048876" id="Path" stroke="#000000" opacity="0.1"></path>
                <path d="M207.491075,167.713275 C207.491075,167.713275 214.502307,163.154448 223.433402,167.564027" id="Path" stroke="#000000" opacity="0.1"></path>
                <path d="M160.55958,166.678719 C160.55958,166.678719 163.503822,160.037214 171.366442,165.101447" id="Path" stroke="#000000" opacity="0.1"></path>
                <path d="M151.014536,68.4604203 L157.018348,63.0332454 C157.018348,63.0332454 180.297537,61.5068524 181.26086,69.4203519 C181.26086,69.4203519 189.513558,60.0381232 206.870342,62.1275855 L214.213988,67.9753666 L193.916354,76.8827175 L174.191965,83.72435 L159.664096,77.2219159 L151.014536,68.4604203 Z" id="Path" fill="#000000" fill-rule="nonzero" opacity="0.1"></path>
                <path d="M151.014536,68.7996188 L157.018348,63.3724438 C157.018348,63.3724438 180.297537,61.8460508 181.26086,69.7595503 C181.26086,69.7595503 189.513558,60.3773216 206.870342,62.466784 L214.213988,68.314565 L193.916354,77.2219159 L174.191965,84.0635484 L159.664096,77.5611144 L151.014536,68.7996188 Z" id="Path" fill="#D5D6DB" fill-rule="nonzero"></path>
                <polygon id="Path" fill="#000000" fill-rule="nonzero" opacity="0.1" points="148.358612 69.4780156 151.014536 101.250733 179.168006 102.665191 177.946891 71.0281525 177.923148 70.4956109"></polygon>
                <polygon id="Path" fill="#F78500" fill-rule="nonzero" points="148.358612 68.7996188 151.014536 100.572336 179.168006 101.986794 177.946891 70.3497556 177.923148 69.8172141"></polygon>
                <polygon id="Path" fill="#000000" fill-rule="nonzero" opacity="0.1" points="215.502942 68.7996188 186.460772 73.1549267 186.460772 105.070108 214.841505 100.969198"></polygon>
                <polygon id="Path" fill="#F78500" fill-rule="nonzero" points="215.502942 68.1212219 186.460772 72.4765298 186.460772 104.391711 214.841505 100.290802"></polygon>
                <polygon id="Path" fill="#FFFFFF" fill-rule="nonzero" opacity="0.3" points="208.654526 75.909218 192.966598 77.6526979 193.309189 82.9984653 208.64435 81.322825"></polygon>
                <path d="M152.540929,117.58653 L154.138553,121.884174 C154.138553,121.884174 156.512942,123.919365 159.111202,122.901769 C161.709462,121.884174 163.975308,121.378768 165.104839,120.388309 C166.23437,119.397849 167.818426,114.421808 167.818426,114.421808 C167.818426,114.421808 169.402483,108.994633 170.983148,107.63784 C172.563812,106.281046 176.749521,87.5878201 170.983148,89.4160997 C165.216774,91.2443793 160.807195,108.204301 160.807195,108.204301 C160.807195,108.204301 159.789599,109.445767 158.32087,109.561095 C156.852141,109.676422 153.91129,109.333832 153.344829,110.57869 C152.778368,111.823548 150.844936,115.100205 152.540929,117.58653 Z" id="Path" fill="#BE6F72" fill-rule="nonzero"></path>
                <path d="M186.460772,73.1515347 C183.445636,73.8309629 180.286829,73.0434627 177.9435,71.0281525 L179.168006,102.661799 C179.168006,102.661799 182.051193,105.782424 186.460772,105.070108 L186.460772,73.1515347 Z" id="Path" fill="#000000" fill-rule="nonzero" opacity="0.1"></path>
                <path d="M186.460772,72.4731378 C183.445636,73.152566 180.286829,72.3650658 177.9435,70.3497556 L179.168006,101.983402 C179.168006,101.983402 182.051193,105.104027 186.460772,104.391711 L186.460772,72.4731378 Z" id="Path" fill="#F78500" fill-rule="nonzero"></path>
                <path d="M186.460772,72.4731378 C183.445636,73.152566 180.286829,72.3650658 177.9435,70.3497556 L179.168006,101.983402 C179.168006,101.983402 182.051193,105.104027 186.460772,104.391711 L186.460772,72.4731378 Z" id="Path" fill="#000000" fill-rule="nonzero" opacity="0.1"></path>
                <path d="M187.139169,68.9081623 C187.139169,68.9081623 198.953451,65.2956989 202.033372,65.8044966" id="Path" fill="#000000" fill-rule="nonzero" opacity="0.1"></path>
                <path d="M173.923998,67.3308895 C173.923998,67.3308895 162.472659,64.6173021 160.55958,65.3872825" id="Path" fill="#000000" fill-rule="nonzero" opacity="0.1"></path>
                <path d="M194.587967,69.3592962 C194.587967,69.3592962 202.487898,66.4625415 205.343949,67.8396872" id="Path" fill="#000000" fill-rule="nonzero" opacity="0.1"></path>
                <path d="M190.609169,142.025777 C191.833342,141.10641 193.136417,140.297096 194.503167,139.607292 C196.538358,138.627009 200.269541,136.083021 200.269541,136.083021" id="Path" fill="#000000" fill-rule="nonzero" opacity="0.1"></path>
                <path d="M160.55958,107.410577 C160.55958,107.410577 155.603891,111.463998 154.114809,111.820156 C152.625728,112.176315 151.7065,115.337644 151.7065,115.337644" id="Path" fill="#000000" fill-rule="nonzero" opacity="0.1"></path>
                <path d="M212.589228,116.982757 L211.008563,121.290577 C211.008563,121.290577 208.634174,123.325767 206.032522,122.308172 C203.43087,121.290577 201.171808,120.785171 200.038886,119.794712 C198.905963,118.804252 197.325298,113.828211 197.325298,113.828211 C197.325298,113.828211 195.744633,108.401036 194.160577,107.044242 C192.57652,105.687449 188.394203,86.9942229 194.160577,88.8225024 C199.92695,90.650782 204.33653,107.610704 204.33653,107.610704 C204.33653,107.610704 205.354125,108.85217 206.822854,108.967498 C208.291584,109.082825 211.232434,108.740235 211.798895,109.985093 C212.365357,111.229951 214.28522,114.506608 212.589228,116.982757 Z" id="Path" fill="#BE6F72" fill-rule="nonzero"></path>
                <path d="M209.817977,109.059081 C209.817977,109.059081 213.057322,111.14176 213.043754,113.631476" id="Path" fill="#000000" fill-rule="nonzero" opacity="0.1"></path>
                <circle id="Oval" fill="#BE6F72" fill-rule="nonzero" cx="182.332727" cy="33.5365494" r="15.1519941"></circle>
                <path d="M172.818211,29.4695601 C174.656667,29.1812414 176.267859,28.1127664 178.024907,27.4988172 C181.956217,26.1182796 186.304741,27.0646432 190.283539,28.3095015 C191.809932,28.7877713 193.360068,29.3270968 194.961085,29.3270968 C196.562102,29.3270968 198.261486,28.6724438 199.078954,27.2919062 C199.831975,26.023304 199.686119,24.3747996 199.051818,23.0417498 C198.417517,21.7086999 197.355826,20.6368328 196.283959,19.6260215 C192.756295,16.2950929 188.380635,13.1812512 183.540274,13.5204497 C181.593275,13.659521 179.731075,14.3548778 177.940108,15.1248583 C175.684994,16.0966616 173.489871,17.2021514 171.366442,18.435435 C169.734897,19.3817986 166.712639,20.6470088 165.77306,22.3769208 C163.636109,26.2743109 169.494066,29.9919257 172.818211,29.4695601 Z" id="Path" fill="#3E373A" fill-rule="nonzero"></path>
                <path d="M199.078954,25.8672727 C198.261486,27.2478104 196.562102,27.9024633 194.961085,27.9024633 C193.360068,27.9024633 191.809932,27.3834897 190.280147,26.9052199 C186.301349,25.6603617 181.956217,24.7106061 178.021515,26.0945357 C176.267859,26.7084848 174.653275,27.7905279 172.814819,28.0618866 C170.135152,28.4824927 165.820547,26.1488074 165.352454,23.1808211 C164.826696,26.6101173 169.829873,29.5475758 172.814819,29.0794819 C174.653275,28.7911632 176.267859,27.7226882 178.021515,27.112131 C181.956217,25.7282014 186.301349,26.677957 190.280147,27.9228152 C191.809932,28.401085 193.356676,28.9404106 194.961085,28.9200587 C196.565494,28.8997067 198.261486,28.2687977 199.078954,26.884868 C199.502689,26.1319926 199.669407,25.2614908 199.553832,24.4053275 C199.500913,24.9207852 199.339044,25.4191095 199.078954,25.8672727 L199.078954,25.8672727 Z" id="Path" fill="#000000" fill-rule="nonzero" opacity="0.1"></path>
                <path d="M322.041779,209.695865 C322.041779,209.695865 324.053226,212.324653 321.112375,216.296667 C318.171525,220.26868 315.749648,223.619961 316.72654,226.096109 C316.72654,226.096109 321.163255,218.721935 324.772326,218.616784 C328.381398,218.511632 326.007009,214.129189 322.041779,209.695865 Z" id="Path" fill="#F78500" fill-rule="nonzero"></path>
                <path d="M322.041779,209.695865 C322.21694,209.949788 322.355131,210.227313 322.452209,210.520117 C325.973089,214.658338 327.852248,218.521808 324.463656,218.616784 C321.30911,218.708368 317.527048,224.349238 316.621388,225.770479 C316.650357,225.885341 316.685458,225.99857 316.72654,226.109677 C316.72654,226.109677 321.163255,218.735503 324.772326,218.630352 C328.381398,218.5252 326.007009,214.129189 322.041779,209.695865 Z" id="Path" fill="#000000" fill-rule="nonzero" opacity="0.1"></path>
                <path d="M325.772962,213.047146 C325.772962,213.973157 325.66781,214.722786 325.542307,214.722786 C325.416804,214.722786 325.30826,213.973157 325.30826,213.047146 C325.30826,212.121134 325.437155,212.5587 325.566051,212.5587 C325.694946,212.5587 325.772962,212.121134 325.772962,213.047146 Z" id="Path" fill="#FFD037" fill-rule="nonzero"></path>
                <path d="M327.058524,214.152933 C326.24784,214.593891 325.538915,214.861857 325.477859,214.749922 C325.416804,214.637986 326.023969,214.186852 326.834653,213.732326 C327.645337,213.277801 327.326491,213.610215 327.387546,213.732326 C327.448602,213.854438 327.8726,213.708583 327.058524,214.152933 Z" id="Path" fill="#FFD037" fill-rule="nonzero"></path>
                <path d="M311.4113,209.695865 C311.4113,209.695865 309.399853,212.324653 312.340704,216.296667 C315.281554,220.26868 317.703431,223.619961 316.723148,226.096109 C316.723148,226.096109 312.289824,218.721935 308.677361,218.616784 C305.064897,218.511632 307.456246,214.129189 311.4113,209.695865 Z" id="Path" fill="#F78500" fill-rule="nonzero"></path>
                <path d="M311.4113,209.695865 C311.236139,209.949788 311.097948,210.227313 311.00087,210.520117 C307.47999,214.658338 305.600831,218.521808 308.989423,218.616784 C312.140577,218.708368 315.926031,224.349238 316.831691,225.770479 C316.80325,225.885877 316.766984,225.999206 316.723148,226.109677 C316.723148,226.109677 312.289824,218.735503 308.677361,218.630352 C305.064897,218.5252 307.456246,214.129189 311.4113,209.695865 Z" id="Path" fill="#000000" fill-rule="nonzero" opacity="0.1"></path>
                <path d="M307.673333,213.047146 C307.673333,213.973157 307.775093,214.722786 307.903988,214.722786 C308.032884,214.722786 308.138035,213.973157 308.138035,213.047146 C308.138035,212.121134 308.005748,212.5587 307.880244,212.5587 C307.754741,212.5587 307.673333,212.121134 307.673333,213.047146 Z" id="Path" fill="#FFD037" fill-rule="nonzero"></path>
                <path d="M306.391163,214.152933 C307.201848,214.593891 307.910772,214.861857 307.971828,214.749922 C308.032884,214.637986 307.425718,214.186852 306.615034,213.732326 C305.80435,213.277801 306.123196,213.610215 306.062141,213.732326 C306.001085,213.854438 305.577087,213.708583 306.391163,214.152933 Z" id="Path" fill="#FFD037" fill-rule="nonzero"></path>
                <ellipse id="Oval" fill="#F78500" fill-rule="nonzero" opacity="0.1" cx="316.72654" cy="242.991584" rx="21.030303" ry="3.22577713"></ellipse>
                <path d="M327.550362,222.551486 L327.448602,223.372346 L327.306139,224.532405 L327.248475,225.017458 L327.106012,226.177517 L327.044956,226.662571 L326.905885,227.819238 L325.294692,241.014057 C325.152229,242.191075 323.228974,243.110303 320.905464,243.110303 L312.544223,243.110303 C310.220714,243.110303 308.30085,242.191075 308.154995,241.014057 L306.543803,227.819238 L306.401339,226.662571 L306.343675,226.177517 L306.201212,225.017458 L306.140156,224.532405 L306.001085,223.372346 L305.899326,222.551486 C305.82131,221.873089 306.859257,221.323587 308.175347,221.323587 L325.277732,221.323587 C326.59043,221.323587 327.631769,221.883265 327.550362,222.551486 Z" id="Path" fill="#65617D" fill-rule="nonzero"></path>
                <polygon id="Path" fill="#9D9CB5" fill-rule="nonzero" points="327.448602 223.372346 327.309531 224.532405 306.143548 224.532405 306.001085 223.372346"></polygon>
                <polygon id="Path" fill="#9D9CB5" fill-rule="nonzero" points="327.248475 225.017458 327.109404 226.177517 306.343675 226.177517 306.201212 225.017458"></polygon>
                <polygon id="Path" fill="#9D9CB5" fill-rule="nonzero" points="327.048348 226.662571 326.905885 227.82263 306.543803 227.82263 306.404731 226.662571"></polygon>
            </g>
        </g>
    </g>
</svg>