<?xml version="1.0" encoding="UTF-8"?>
<svg width="184px" height="180px" viewBox="0 0 184 180" version="1.1" xmlns="http://www.w3.org/2000/svg" xmlns:xlink="http://www.w3.org/1999/xlink">
    <g id="Design" stroke="none" stroke-width="1" fill="none" fill-rule="evenodd">
        <g id="07---Sign-In" transform="translate(-96.000000, -94.000000)" fill-rule="nonzero">
            <g id="Image-Copy" transform="translate(96.000000, 94.000000)">
                <path d="M184,168 C184,174.627097 142.81071,180 92,180 C41.1892903,180 0,174.627097 0,168 C0,163.308387 20.6465806,159.243871 50.7365161,157.272258 C63.1446452,156.456774 77.1642581,156 92,156 C98.0987097,156 104.057935,156.077419 109.82129,156.224516 C152.102716,157.30839 184,162.167732 184,168 Z" id="Path" fill="#3F3D56"></path>
                <ellipse id="Oval" fill="#000000" opacity="0.1" cx="80.5" cy="166" rx="35.5" ry="4"></ellipse>
                <ellipse id="Oval" fill="#3F3D56" cx="80.5" cy="137.5" rx="33.5" ry="31.5"></ellipse>
                <rect id="Rectangle" fill="#F78500" x="70" y="156" width="21" height="17"></rect>
                <polygon id="Path" fill="#575A89" points="118.209302 160 117 165.923077 124.860465 167 130 164.307692 129.697674 160"></polygon>
                <path d="M79.464233,51.1504789 C79.464233,51.1504789 78.8456898,57.1126171 77.2993316,57.3718405 C75.7529734,57.6310639 80.7013196,68 80.7013196,68 L88.1238389,68 L94,66.703883 L91.2165553,61.0009682 C91.2165553,61.0009682 87.5052956,56.8533937 90.2887403,53.4834895 C93.0721851,50.1135853 79.464233,51.1504789 79.464233,51.1504789 Z" id="Path" fill="#A0616A"></path>
                <path d="M79.464233,51.1504789 C79.464233,51.1504789 78.8456898,57.1126171 77.2993316,57.3718405 C75.7529734,57.6310639 80.7013196,68 80.7013196,68 L88.1238389,68 L94,66.703883 L91.2165553,61.0009682 C91.2165553,61.0009682 87.5052956,56.8533937 90.2887403,53.4834895 C93.0721851,50.1135853 79.464233,51.1504789 79.464233,51.1504789 Z" id="Path" fill="#000000" opacity="0.1"></path>
                <path d="M63.9070621,98.0600576 C63.9070621,98.0600576 56.2070865,111.310778 62.4262976,113.960922 C68.6455087,116.611066 70.1262733,116.346051 70.1262733,117.141094 C70.1262733,117.936138 68.9416616,117.671123 69.5339674,118.996195 C70.1262733,120.321267 68.3493558,125.621555 70.1262733,128.801728 C71.9031907,131.981901 71.3108849,134.367031 71.3108849,134.367031 C71.3108849,134.367031 71.3108849,134.632045 71.9031907,135.692103 C72.4954965,136.75216 72.7916494,137.547203 72.4954965,138.077232 C72.1993436,138.607261 70.4224262,142.052448 72.1993436,142.847491 C73.9762611,143.642535 83.1570013,144.172563 84.04546,142.847491 C84.9339188,141.522419 83.1570013,140.727376 84.04546,139.932333 C84.9339188,139.13729 85.5262246,138.872275 84.9339188,138.342247 C84.3416129,137.812218 83.7493071,131.186858 83.7493071,131.186858 C83.7493071,131.186858 85.2300717,123.50144 84.6377658,122.441382 C84.04546,121.381325 83.1570013,120.321267 83.7493071,119.526224 C84.3416129,118.731181 84.9339188,118.996195 85.2300717,117.936138 C85.5262246,116.87608 86.1185304,114.49095 86.1185304,114.49095 L89.3762124,114.225936 L97.0761881,115.551008 C97.0761881,115.551008 105.664622,124.031469 115.141516,126.681613 C115.141516,126.681613 117.806892,129.066743 118.69535,129.066743 C119.583809,129.066743 119.583809,129.066743 119.287656,129.596771 C118.991503,130.1268 118.103045,130.1268 118.69535,130.656829 C119.287656,131.186858 120.176115,130.391815 119.583809,131.186858 C118.991503,131.981901 118.399198,131.981901 118.991503,132.51193 C119.583809,133.041959 118.69535,135.957117 118.69535,136.222131 C118.69535,136.487146 116.029974,161.398499 116.918433,161.928528 C117.806892,162.458557 130.245314,164.048643 131.133773,161.928528 C132.022231,159.808413 130.541467,157.158269 130.541467,157.158269 C130.541467,157.158269 134.983761,125.356541 133.799149,123.236426 C132.614537,121.11631 128.468397,111.575792 106.256928,105.480461 C106.256928,105.480461 100.037717,104.420403 100.037717,103.62536 C100.037717,102.830317 99.4454113,97.7950432 98.2607997,97.5300288 C97.0761881,97.2650144 90.2646711,97 90.2646711,97 L81.6762367,99.3851296 L69.8301203,97.5300288 L63.9070621,98.0600576 Z" id="Path" fill="#2F2E41"></path>
                <path d="M73.9462859,141.766175 L72.4525424,146.363227 C72.4525424,146.363227 71.2575476,153.769588 72.7512911,155.557331 C73.9245938,156.961561 76.0194974,158.680933 79.9046765,158.982696 C82.1477952,159.158614 84.2323944,157.977789 84.9172466,156.143317 C84.9618265,156.036736 84.9896541,155.925566 85,155.812722 C85,155.301939 84.1037539,149.172536 84.1037539,149.172536 L82.6100104,142.787742 L82.3112617,141 L73.9462859,141.766175 Z" id="Path" fill="#2F2E41"></path>
                <path d="M118.342989,165.303515 C118.342989,165.303515 116.886616,164.059022 116.595342,165.303515 C116.304067,166.548008 115.138969,171.774879 117.177891,172.023777 C119.216812,172.272676 138.732204,174.761662 140.771126,173.766067 C142.810047,172.770473 146.596616,171.277081 144.26642,170.530386 C141.936224,169.78369 135.23691,167.543602 135.23691,167.543602 C135.23691,167.543602 131.450341,163.312326 130.867792,163.063428 C130.285243,162.814529 127.081224,163.312326 125.624851,164.307921 C124.168479,165.303515 118.342989,165.303515 118.342989,165.303515 Z" id="Path" fill="#2F2E41"></path>
                <ellipse id="Oval" fill="#A0616A" cx="86" cy="48.5" rx="9" ry="8.5"></ellipse>
                <path d="M84.0711317,67.3474536 L80.491145,63.9754742 L76.5228878,57.2315154 C76.5228878,57.2315154 73.6295038,56.4533663 73.0328393,57.7502815 C72.4361749,59.0471966 61.6962148,63.1973251 61.6962148,63.1973251 C61.6962148,63.1973251 64.3812048,84.9854996 63.1878759,87.0605639 C61.994547,89.1356281 59.9062215,97.4358851 61.6962148,98.2140342 C63.4862082,98.9921833 71.8395105,98.2140342 74.5245005,99.2515663 C77.2094905,100.289098 84.9661283,100.289098 87.0544539,98.9921833 C89.1427795,97.6952681 89.7394439,96.657736 91.8277695,97.4358851 C93.6056088,98.0983493 97.7618212,75.4503201 98.9583989,68.7011736 C99.1640725,67.5447934 98.5963365,66.3872389 97.4941635,65.7157502 C94.8173,64.0832349 89.9962483,61.2700158 89.1427795,61.6410373 C87.9494506,62.159793 84.0711317,67.3474536 84.0711317,67.3474536 Z" id="Path" fill="#575A89"></path>
                <path d="M97.7723112,66 L97.7723112,66 C99.2511878,66.3144795 100.344091,67.3781664 100.512431,68.6668684 L103,87.7099914 C103,87.7099914 96.8497743,98.9573364 93.7746615,91.3719177 C90.6995486,83.786499 97.7723112,66 97.7723112,66 Z" id="Path" fill="#575A89"></path>
                <path d="M97.8236778,89.5649819 L104.427223,88 C104.427223,88 105.627867,95.3032491 106.828512,95.3032491 C108.029156,95.3032491 102.626256,99.4765343 99.9248057,98.9548736 C97.2233556,98.433213 93.3212609,96.6074007 93.0210998,95.3032491 C92.7209386,93.9990975 95.7225499,88.5216606 95.7225499,88.5216606 L97.8236778,89.5649819 Z" id="Path" fill="#575A89"></path>
                <path d="M78.2748079,52 C78.927672,50.8125171 78.8143177,49.4273776 79.354066,48.201861 C79.939928,46.871646 81.2459553,45.8438212 82.884317,45.4236042 C84.5226787,45.0033871 86.3049895,45.239096 87.7019836,46.0607359 C88.3963067,46.4691017 89.0924014,47.0428542 89.9398902,46.9648886 C90.8525439,46.8809396 91.6665767,46.0410816 92.5056689,46.3488793 C93.4356855,46.6900328 93.1844936,48.0648943 94.1267132,48.3824489 C94.6226671,48.5496009 95.2087339,48.2922354 95.4947909,47.9185692 C95.744956,47.5259014 95.8812783,47.0907148 95.8930376,46.6472318 C96.0230455,45.5575783 96.1405314,44.4043505 95.5676401,43.4166729 C95.3266717,43.0819035 95.116675,42.7326106 94.939439,42.3717697 C94.8392071,42.0347983 94.7989749,41.6875858 94.820008,41.3410534 C94.8147769,40.0602964 94.7014443,38.7243629 93.9200621,37.6176073 C93.0529867,36.3894746 91.4502128,35.6041494 89.778102,35.2614783 C88.1059911,34.9188072 86.3541523,34.9713498 84.6373551,35.0912375 C81.7993205,35.2894255 78.8396311,35.7142521 76.6036758,37.169588 C76.2997576,37.3527265 76.0381902,37.5794072 75.8314335,37.8388322 C75.6351692,38.1470161 75.4964897,38.4778953 75.4200918,38.8202633 C74.9366645,40.444142 74.2118345,42.0125236 73.2620775,43.4897588 C72.8052197,44.1160013 72.4318548,44.7811846 72.1485025,45.4736932 C71.9113843,46.1773994 71.927403,46.9793617 72.4237502,47.5841962 C72.8278568,48.076626 73.4739009,48.3390526 73.9814693,48.7416445 C74.4844136,49.1405703 74.7197416,49.907764 75.2768775,50.2098338 C75.7632394,50.4735301 76.3458126,50.2873881 76.8418594,50.5668758 C77.4787234,50.9257087 77.5247229,51.7125029 78.2748079,52 Z" id="Path" fill="#2F2E41"></path>
                <path d="M86,71.625 L86.9117647,70 C86.9117647,70 100.284314,73.5208333 103.019608,76.7708333 C103.019608,76.7708333 109.705882,72.9791667 113.352941,73.5208333 L117,74.0625 L105.754902,83 L91.4705882,81.9166667 L86,71.625 Z" id="Path" fill="#F2F2F2"></path>
                <path d="M86.1586207,68 L74,83.6641221 L91.4965517,91.6335878 C91.4965517,91.6335878 93.132248,92.4580153 94.3902619,91.6335878 L106.027586,86.6870229 L117,72.1221374 L106.027586,77.3435115 C106.027586,77.3435115 104.841379,75.1450382 102.468966,76.2442748 L86.1586207,68 Z" id="Path" fill="#F78500"></path>
                <path d="M104.456842,96 L106.787788,90.4542648 C106.787788,90.4542648 112.032418,84.3803643 109.118735,81.4754554 C106.205052,78.5705465 103,89.9260995 103,89.9260995 L104.456842,96 Z" id="Path" fill="#A0616A"></path>
                <path d="M78,95 L83.4437479,91.4100892 C83.4437479,91.4100892 91.8980317,88.6539855 90.9214731,84.9675642 C89.9449144,81.2811428 80.2497626,89.3167365 80.2497626,89.3167365 L78,95 Z" id="Path" fill="#A0616A"></path>
                <path d="M65.9699521,68.7467358 L65.6783819,68.7467358 C65.6783819,68.7467358 61.1590438,63.8420955 60.2843332,70.4699878 C59.4096226,77.0978801 56.4939206,99.1024825 64.0747458,99.8978295 C71.655571,100.693177 77.0496197,96.5838834 77.0496197,96.5838834 C77.0496197,96.5838834 82.5894536,88.8955284 80.5484621,88.8955284 C79.5609401,88.8955284 76.8751587,88.492245 74.4254879,88.6304127 C71.8122259,88.777817 69.4640857,89.4471758 69.6145796,88.7629705 C69.9061498,87.4373921 74.1339177,70.6025457 65.9699521,68.7467358 Z" id="Path" fill="#000000" opacity="0.1"></path>
                <path d="M64.4047568,61.5438384 L63.1780037,61 C63.1780037,61 58.2709914,61.8157575 57.3509266,68.6137371 C56.4308618,75.4117166 53.363979,97.9810087 61.3378741,98.7967663 C69.3117692,99.6125238 80.0458587,97.7090896 80.0458587,97.7090896 C80.0458587,97.7090896 82.1926766,87.3761606 80.0458587,87.3761606 C77.8990408,87.3761606 66.858263,88.7357566 67.1649513,87.3761606 C67.4716396,86.0165647 72.9920285,63.4472726 64.4047568,61.5438384 Z" id="Path" fill="#575A89"></path>
                <polygon id="Path" fill="#575A89" points="100 92.7076683 103.675667 88 106 95.7716498 100 98"></polygon>
                <ellipse id="Oval" fill="#F2F2F2" cx="32.5" cy="22" rx="7.5" ry="7"></ellipse>
                <rect id="Rectangle" fill="#F2F2F2" x="24" y="75" width="18" height="17"></rect>
                <polygon id="Path" fill="#F2F2F2" points="110 0 115.000154 7.5 120 15 110 15 100 15 104.999846 7.5"></polygon>
            </g>
        </g>
    </g>
</svg>