<?xml version="1.0" encoding="UTF-8"?>
<svg width="347px" height="212px" viewBox="0 0 347 212" version="1.1" xmlns="http://www.w3.org/2000/svg" xmlns:xlink="http://www.w3.org/1999/xlink">
    <g id="Design" stroke="none" stroke-width="1" fill="none" fill-rule="evenodd">
        <g id="04---Sign-Up-1" transform="translate(-15.000000, -102.000000)" fill-rule="nonzero">
            <g id="Image-Copy" transform="translate(15.000000, 102.000000)">
                <circle id="Oval" fill="#F2F2F2" cx="174.719659" cy="101.843594" r="101.843594"></circle>
                <path d="M291.459808,23.7216427 L285.231829,39.4046187 C286.436812,44.8597728 287.615701,51.011601 288.561709,57.5625036 L299.650353,34.3566865 L299.832134,34.6364575 C297.291747,30.2459684 294.403018,26.458006 291.268373,23.4632405 L291.459808,23.7216427 Z" id="Path" fill="#F78500"></path>
                <path d="M285.018717,38.448033 L291.051769,23.2564584 C287.514382,19.930381 283.668655,17.6144701 279.656655,16.5923112 C279.447921,16.5391391 279.240133,16.4926478 279.032467,16.4469218 C279.516519,17.8866181 282.301124,26.3556776 285.018717,38.448033 Z" id="Path" fill="#F78500"></path>
                <path d="M310.501259,72.0918754 L310.641297,72.4396743 C310.492606,70.0718353 310.259013,67.7293129 309.940519,65.4121071 L290.663495,89.5041128 L290.593214,89.3477371 C290.551529,90.7694187 290.48902,92.1718404 290.405687,93.5550024 L310.501259,72.0918754 Z" id="Path" fill="#F78500"></path>
                <path d="M306.982585,51.8260783 L307.144903,52.1456811 C305.452948,46.1500122 303.056837,40.3758334 300.006635,34.9437965 L288.706503,58.591691 C289.565132,64.7356441 290.139735,70.6643119 290.430313,76.3776943 L306.982585,51.8260783 Z" id="Path" fill="#F78500"></path>
                <path d="M253.397628,36.4966062 C251.961529,40.6950882 250.953287,45.0279217 250.388263,49.4291011 L289.728049,72.4121064 C289.376223,67.4614104 288.843382,62.724711 288.225677,58.3477359 L253.355336,36.8687043 L253.397628,36.4966062 Z" id="Path" fill="#F78500"></path>
                <path d="M249.868836,54.5644114 L249.904646,54.1901088 L289.990321,76.8554231 C289.933624,75.639433 289.865293,74.4339658 289.785329,73.2390214 L250.300367,50.1712145 L250.338643,49.7974547 C250.138432,51.3482946 249.98183,52.9372802 249.868836,54.5644114 Z" id="Path" fill="#F78500"></path>
                <path d="M309.727751,64.6309119 L309.878468,64.9662853 C309.28536,60.7695781 308.409755,56.6176733 307.257617,52.5388614 L290.481558,77.4225272 C290.653673,81.233384 290.696944,84.9332558 290.611369,88.5221424 L309.727751,64.6309119 Z" id="Path" fill="#F78500"></path>
                <path d="M288.419777,109.245074 C286.820412,117.181924 284.367543,124.259575 281.082093,130.397026 C285.676141,126.479902 303.914513,109.892083 309.312675,89.16977 L288.419777,109.245074 Z" id="Path" fill="#F78500"></path>
                <path d="M250.941783,72.5643534 C251.801158,76.5443409 252.926254,80.462272 254.309509,84.2918191 L254.372018,83.8861584 L288.059681,108.38888 C288.913083,103.938984 289.498826,99.4419095 289.813754,94.9218774 L250.941783,72.5643534 Z" id="Path" fill="#F78500"></path>
                <path d="M284.584302,38.5532795 C281.640751,25.4709252 278.624266,16.6777866 278.580659,16.5517109 L278.769518,16.3899352 C272.606152,15.1231443 266.93587,17.1348112 262.268287,21.6526689 L284.584302,38.5532795 Z" id="Path" fill="#F78500"></path>
                <path d="M290.334775,94.6250674 C290.305695,95.0537527 290.278615,95.4843772 290.245537,95.9092571 C289.935455,99.9841047 289.403734,104.039047 288.652737,108.056077 L309.347524,88.1710504 L309.476359,88.5154433 C310.396305,84.8592409 310.849306,81.1012134 310.82454,77.3311332 C310.808129,75.8498478 310.75662,74.3748701 310.670015,72.9062002 L290.334775,94.6250674 Z" id="Path" fill="#F78500"></path>
                <path d="M288.100403,57.4746528 C287.160588,50.9988034 285.993521,44.9198757 284.801717,39.528444 L261.973773,22.2398947 L262.033205,21.8797557 C258.547959,25.3409526 255.636483,30.214653 253.514056,36.1705421 L288.100403,57.4746528 Z" id="Path" fill="#F78500"></path>
                <path d="M287.920866,109.094858 L254.479753,84.7714017 C262.767808,107.736603 278.931254,129.798951 279.966369,131.199575 C283.796423,124.476093 286.333597,116.936085 287.920866,109.094858 Z" id="Path" fill="#F78500"></path>
                <path d="M289.8491,94.1494579 L289.868347,94.1289032 C290.216363,88.6486798 290.26896,83.1536895 290.025908,77.6678086 L249.841601,54.9466694 C249.698349,57.1517863 249.638489,59.4190563 249.662021,61.7484792 C249.724091,65.0800867 250.089918,68.3990886 250.754955,71.664236 L289.8491,94.1494579 Z" id="Path" fill="#F78500"></path>
                <path d="M346.430676,111.006492 L331.631108,119.113053 C329.079795,124.083111 326.064032,129.573099 322.614374,135.221915 L345.955765,124.42154 L345.917345,124.752961 C346.761082,119.751151 346.952225,114.991223 346.448078,110.685359 L346.430676,111.006492 Z" id="Path" fill="#F78500"></path>
                <path d="M332.077094,118.240387 L346.413103,110.387969 C345.810074,105.570045 344.325252,101.333507 341.887202,97.9873358 C341.760355,97.8132504 341.629962,97.6449096 341.499187,97.4772428 C340.953738,98.894817 337.696723,107.193664 332.077094,118.240387 Z" id="Path" fill="#F78500"></path>
                <path d="M330.244928,160.405684 L330.130952,160.762874 C331.526676,158.844354 332.840861,156.891179 334.073506,154.903349 L303.860298,161.163586 L303.905911,160.998319 C302.967036,162.066695 302.024402,163.106953 301.078011,164.119093 L330.244928,160.405684 Z" id="Path" fill="#F78500"></path>
                <path d="M340.460721,142.552906 L340.38189,142.902589 C342.902892,137.205634 344.74029,131.230145 345.85569,125.100983 L322.069465,136.106951 C318.812068,141.386603 315.473228,146.319292 312.052944,150.905016 L340.460721,142.552906 Z" id="Path" fill="#F78500"></path>
                <path d="M308.967513,96.5690175 C305.18359,98.8866774 301.643506,101.580708 298.401192,104.610069 L314.041379,147.402847 C316.928041,143.365468 319.538798,139.377462 321.854733,135.612378 L308.697609,96.8286241 L308.967513,96.5690175 Z" id="Path" fill="#F78500"></path>
                <path d="M294.725749,108.233944 L294.992067,107.968498 L311.409357,150.992333 C312.141268,150.019635 312.857506,149.047614 313.55807,148.076271 L297.860165,105.125574 L298.128032,104.862122 C296.984686,105.928866 295.850592,107.052806 294.725749,108.233944 Z" id="Path" fill="#F78500"></path>
                <path d="M334.407904,154.165962 L334.310079,154.520393 C336.529995,150.909839 338.503758,147.153612 340.217922,143.277303 L311.425996,151.74242 C309.127941,154.787279 306.801434,157.664479 304.446475,160.374021 L334.407904,154.165962 Z" id="Path" fill="#F78500"></path>
                <path d="M289.541142,174.936781 C283.24709,180.02957 276.84368,183.91622 270.398701,186.547709 C276.435391,186.460935 301.062356,185.317878 318.436966,172.800795 L289.541142,174.936781 Z" id="Path" fill="#F78500"></path>
                <path d="M284.071495,122.781645 C282.19488,126.395111 280.5625,130.130264 279.185327,133.962003 L279.492199,133.689428 L289.80989,174.047672 C293.305383,171.164724 296.624817,168.074719 299.750312,164.794301 L284.071495,122.781645 Z" id="Path" fill="#F78500"></path>
                <path d="M331.675388,118.044372 C337.752416,106.091039 341.037549,97.3946976 341.084367,97.2697898 L341.333005,97.265649 C337.394012,92.3588799 331.743764,90.2916656 325.26728,90.7942179 L331.675388,118.044372 Z" id="Path" fill="#F78500"></path>
                <path d="M300.340913,164.898019 C300.045091,165.209649 299.749577,165.524022 299.453106,165.830163 C296.615288,168.770793 293.619463,171.554729 290.478935,174.169609 L319.100813,172.053812 L318.980369,172.401233 C322.020884,170.172023 324.766709,167.566563 327.152249,164.647094 C328.084393,163.495755 328.985484,162.326892 329.855523,161.140503 L300.340913,164.898019 Z" id="Path" fill="#F78500"></path>
                <path d="M322.315115,134.860038 C325.721673,129.272972 328.700043,123.846681 331.220861,118.934104 L324.665915,91.0586392 L324.94139,90.8191696 C320.049483,91.2620001 314.698581,93.1586936 309.265153,96.3921421 L322.315115,134.860038 Z" id="Path" fill="#F78500"></path>
                <path d="M289.252696,174.502873 L279.010564,134.439969 C270.746384,157.413772 269.12361,184.715253 269.027496,186.45422 C276.265709,183.718708 283.028946,179.52972 289.252696,174.502873 Z" id="Path" fill="#F78500"></path>
                <path d="M300.270224,164.221924 L300.29816,164.218372 C304.061568,160.219528 307.606864,156.020886 310.918641,151.640689 L294.460989,108.510977 C292.944203,110.117965 291.452,111.826013 289.984381,113.635121 C287.90724,116.240679 286.072088,119.030268 284.501732,121.969219 L300.270224,164.221924 Z" id="Path" fill="#F78500"></path>
                <path d="M247.026818,85.692147 L245.951362,102.532188 C248.78351,107.347749 251.806179,112.833941 254.730727,118.771636 L258.103518,93.2747313 L258.362875,93.4846114 C254.589802,90.0943482 250.671675,87.3847813 246.764866,85.5055629 L247.026818,85.692147 Z" id="Path" fill="#F78500"></path>
                <path d="M245.453027,101.688316 L246.494975,85.3758678 C242.102723,83.3060646 237.729487,82.2922605 233.598006,82.5602525 C233.383058,82.5742026 233.171068,82.5942176 232.959444,82.6149187 C233.864797,83.8344956 239.130806,91.0281167 245.453027,101.688316 Z" id="Path" fill="#F78500"></path>
                <path d="M280.086914,125.808076 L280.3276,126.095559 C279.454306,123.889629 278.508086,121.734022 277.488939,119.628738 L266.602652,148.49944 L266.487477,148.372443 C266.887271,149.737391 267.261303,151.09046 267.609571,152.431651 L280.086914,125.808076 Z" id="Path" fill="#F78500"></path>
                <path d="M270.47645,107.622282 L270.729607,107.876061 C267.267263,102.696977 263.203706,97.9461886 258.623845,93.722965 L255.186566,119.705672 C257.902228,125.283357 260.281221,130.744093 262.323545,136.087881 L270.47645,107.622282 Z" id="Path" fill="#F78500"></path>
                <path d="M214.777226,109.60643 C214.70919,114.043207 215.089586,118.475508 215.912621,122.835811 L260.429934,132.533546 C258.565092,127.934024 256.594248,123.593984 254.653878,119.62228 L214.852017,109.973362 L214.777226,109.60643 Z" id="Path" fill="#F78500"></path>
                <path d="M217.005942,127.880206 L216.924303,127.513163 L262.052784,136.678211 C261.623004,135.539289 261.185413,134.413973 260.740011,133.302264 L216.058425,123.568743 L215.979301,123.201457 C216.268236,124.738242 216.61045,126.297825 217.005942,127.880206 Z" id="Path" fill="#F78500"></path>
                <path d="M277.04512,118.951545 L277.292106,119.22391 C275.430853,115.416041 273.314785,111.738101 270.958319,108.215149 L262.695237,137.065704 C264.036848,140.636735 265.221619,144.14205 266.249548,147.581649 L277.04512,118.951545 Z" id="Path" fill="#F78500"></path>
                <path d="M270.570689,167.967204 C271.502899,176.009749 271.357827,183.498988 270.130331,190.351415 C273.288638,185.206103 285.506642,163.793157 284.235256,142.417048 L270.570689,167.967204 Z" id="Path" fill="#F78500"></path>
                <path d="M223.590072,144.667053 C225.637566,148.186513 227.918585,151.564822 230.417803,154.77928 L230.351858,154.374174 L269.963582,167.264254 C269.399744,162.768484 268.566771,158.310577 267.469149,153.914546 L223.590072,144.667053 Z" id="Path" fill="#F78500"></path>
                <path d="M245.072415,101.922682 C238.229295,90.3908075 232.642595,82.9606502 232.562156,82.8542389 L232.691748,82.642014 C226.438622,83.342338 221.667826,87.0081552 218.625267,92.7475138 L245.072415,101.922682 Z" id="Path" fill="#F78500"></path>
                <path d="M267.87291,153.471215 C267.977757,153.887895 268.085108,154.305802 268.184978,154.720101 C269.149605,158.691248 269.897295,162.711972 270.424729,166.764419 L283.959699,141.456456 L284.188676,141.744164 C283.933454,137.982651 283.202677,134.26863 282.013803,130.690823 C281.54033,129.287148 281.035433,127.90032 280.499112,126.530339 L267.87291,153.471215 Z" id="Path" fill="#F78500"></path>
                <path d="M254.264872,118.830671 C251.369413,112.962435 248.380508,107.541926 245.580605,102.782894 L218.526696,93.3970045 L218.471898,93.0361306 C216.227162,97.4051168 214.964713,102.940081 214.787167,109.260347 L254.264872,118.830671 Z" id="Path" fill="#F78500"></path>
                <path d="M270.049774,167.978559 L230.727947,155.182754 C245.708611,174.46155 267.899941,190.447443 269.317305,191.45954 C270.881595,183.881435 270.963933,175.926426 270.049774,167.978559 Z" id="Path" fill="#F78500"></path>
                <path d="M267.264001,153.169026 L267.275954,153.143529 C265.91301,147.824098 264.264547,142.581937 262.337726,137.439824 L217.098205,128.25217 C217.643562,130.393578 218.287439,132.568323 219.029836,134.776404 C220.118657,137.925678 221.492462,140.969074 223.134179,143.868767 L267.264001,153.169026 Z" id="Path" fill="#F78500"></path>
                <path d="M226.195365,185.143567 C256.984433,184.780388 287.772457,184.988649 318.559438,185.76835 C321.207911,185.83546 323.956181,185.921652 326.295028,186.623043 C328.633875,187.324434 330.433808,188.829073 329.793904,190.274578 C317.775676,190.630099 305.745042,190.739951 293.702001,190.604133 C291.079328,191.888765 288.199978,193.823647 289.811805,195.556122 C290.92713,196.754937 293.680233,197.111828 296.087846,197.114637 C300.44848,197.119729 304.826654,196.403973 309.122764,196.823913 C313.418874,197.243853 317.705635,199.503421 316.447141,201.849183 C315.491452,203.630531 311.865741,204.512335 308.566192,204.669799 C305.266642,204.827264 301.888119,204.499827 298.662924,204.921664 C295.598009,205.322528 292.942608,206.364157 290.07418,207.09128 C285.549425,208.238268 280.533632,208.592668 275.598749,208.894149 C237.705678,211.209109 199.498371,211.190738 161.38197,211.169774 C145.950862,211.161282 130.310157,211.137913 115.409044,208.885212 C106.915097,207.601129 98.775654,205.607071 90.1745424,204.572392 C79.9006255,203.336481 69.2823646,203.504239 58.7758053,203.541281 C40.3311859,203.606308 21.9021227,203.250866 3.48861542,202.474954 C2.11834962,202.417181 0.436387566,202.22151 0.0665947276,201.477948 C-0.364972039,200.610186 1.38649064,199.933063 2.86696706,199.586774 C11.2559427,197.644989 19.7859091,196.372647 28.3763854,195.781751 C32.7269757,195.47583 37.2101517,195.320101 41.2115648,194.313017 C45.2129779,193.305934 48.7087498,191.193957 48.6711957,188.730614 C48.6597368,187.979167 48.3426587,187.175288 48.9697957,186.511543 C49.802556,185.630172 51.8514904,185.427966 53.6192816,185.331874 C73.2163109,184.266651 92.9201448,183.821975 112.606104,184.000665 C119.530858,184.063519 126.48415,184.202678 133.359869,183.736244 C138.993631,183.354059 144.511742,182.569394 150.063989,181.910634 C157.516735,181.026381 189.950895,176.445618 194.682295,180.162479 C198.224134,182.944852 190.911707,183.545202 200.411149,184.680584 C208.682382,185.669147 217.806293,185.242538 226.195365,185.143567 Z" id="Path" fill="#F2F2F2"></path>
                <circle id="Oval" fill="#2F2E41" cx="209.175747" cy="70.1318407" r="18.2952579"></circle>
                <circle id="Oval" fill="#2F2E41" cx="228.995606" cy="46.0430885" r="18.2952579"></circle>
                <path d="M244.776245,61.1927365 C239.971371,64.6655142 233.781662,65.5949248 228.168765,63.686419 C222.555868,61.7779132 218.215616,57.2680894 216.523524,51.5862031 C217.383878,58.4281323 222.018033,64.2051642 228.51039,66.529277 C235.002748,68.8533898 242.25037,67.3297573 247.257345,62.5881955 C252.264319,57.8466337 254.180049,50.6926514 252.212638,44.0834533 C253.04742,50.7170768 250.195961,57.2775729 244.776245,61.1927365 L244.776245,61.1927365 Z" id="Path" fill="#2F2E41"></path>
                <circle id="Oval" fill="#A0616A" cx="204.449458" cy="77.2974761" r="14.9411248"></circle>
                <path d="M199.265817,89.4943218 C199.265817,89.4943218 205.364236,98.6419492 204.449473,102.605921 C204.449473,102.605921 200.485501,104.435447 200.485501,105.045288 C200.485501,105.65513 196.82645,111.448628 196.82645,111.448628 L192.557557,117.242125 L190.728032,124.865148 L199.570738,124.865148 L209.328207,117.242125 L218.780756,106.874814 C218.780756,106.874814 225.184095,103.825605 228.538225,106.264972 L230.36775,107.789577 C230.36775,107.789577 223.964411,99.251791 220.915202,97.4222655 C220.915202,97.4222655 215.426626,90.7140054 216.036467,84.0057453 L199.265817,89.4943218 Z" id="Path" fill="#A0616A"></path>
                <path d="M201.705185,102.301 C201.705185,102.301 195.606766,105.65513 193.167399,112.058469 C190.728032,118.461809 179.750879,139.806273 179.750879,139.806273 C179.750879,139.806273 178.836116,153.527714 179.445958,154.137556 C180.0558,154.747397 187.068981,148.039137 188.288664,146.209612 C189.508348,144.380086 194.387083,122.42578 194.387083,122.42578 L202.315026,109.619102 L203.839631,102.301 L201.705185,102.301 Z" id="Path" fill="#A0616A"></path>
                <path d="M182.495167,140.72102 L179.750879,139.806257 C179.750879,139.806257 162.980228,129.438946 162.065466,124.865133 C161.150703,120.291319 147.734183,105.045273 147.429262,113.278138 C147.124341,121.511002 157.186731,130.65863 157.186731,130.65863 C157.186731,130.65863 179.141037,161.455642 180.360721,152.612936 L182.495167,140.72102 Z" id="Path" fill="#A0616A"></path>
                <path d="M210.24297,119.681492 C210.24297,119.681492 210.547891,128.219278 222.439807,131.268487 C222.439807,131.268487 234.636643,147.734216 235.856327,155.052318 C237.076011,162.37042 269.092707,199.875693 269.092707,199.875693 C269.092707,199.875693 298.670035,203.534744 298.670035,199.875693 C298.670035,196.216642 273.971441,193.167432 273.971441,193.167432 C273.971441,193.167432 248.053163,154.747397 246.83348,149.563742 C245.613796,144.380086 234.026801,105.960051 228.538225,106.264972 C228.538225,106.264972 223.354569,103.825605 220.30536,105.65513 C217.256151,107.484656 210.24297,119.681492 210.24297,119.681492 Z" id="Path" fill="#A0616A"></path>
                <path d="M174.567223,154.13754 C174.567223,154.13754 153.222759,125.474974 148.648946,123.645449 C144.075132,121.815923 138.281634,120.59624 134.927504,124.865133 C131.573374,129.134025 91.9336555,179.141055 91.9336555,179.141055 C91.9336555,179.141055 77.9072935,193.472338 70.8941125,190.72805 C70.8941125,190.72805 67.2350615,193.777259 75.7728471,194.387101 C84.3106327,194.996943 92.2385764,192.557575 92.2385764,192.557575 C92.2385764,192.557575 97.422232,193.472338 101.081283,194.387101 C104.740334,195.301864 109.314148,195.606785 109.009227,193.167417 L107.789543,183.409948 C107.789543,183.409948 139.196397,157.49167 140.11116,146.514517 C140.11116,146.514517 139.501318,141.330862 140.11116,141.940704 C140.721002,142.550546 153.52768,156.271987 159.321178,159.321196 C165.11467,162.370405 179.445958,166.639298 179.445958,166.639298 L174.567223,154.13754 Z" id="Path" fill="#A0616A"></path>
                <path d="M174.567223,154.13754 C174.567223,154.13754 153.222759,125.474974 148.648946,123.645449 C144.075132,121.815923 138.281634,120.59624 134.927504,124.865133 C131.573374,129.134025 91.9336555,179.141055 91.9336555,179.141055 C91.9336555,179.141055 77.9072935,193.472338 70.8941125,190.72805 C70.8941125,190.72805 67.2350615,193.777259 75.7728471,194.387101 C84.3106327,194.996943 92.2385764,192.557575 92.2385764,192.557575 C92.2385764,192.557575 97.422232,193.472338 101.081283,194.387101 C104.740334,195.301864 109.314148,195.606785 109.009227,193.167417 L107.789543,183.409948 C107.789543,183.409948 139.196397,157.49167 140.11116,146.514517 C140.11116,146.514517 139.501318,141.330862 140.11116,141.940704 C140.721002,142.550546 153.52768,156.271987 159.321178,159.321196 C165.11467,162.370405 179.445958,166.639298 179.445958,166.639298 L174.567223,154.13754 Z" id="Path" fill="#000000" opacity="0.1"></path>
                <path d="M177.921353,158.101512 C177.921353,158.101512 149.868629,147.42928 146.209578,144.989913 C142.550527,142.550546 129.438928,137.671811 122.730668,143.160387 C116.022408,148.648964 83.3958699,173.9574 72.418717,176.396767 C61.4415641,178.836134 42.5364675,184.629632 42.5364675,184.629632 C42.5364675,184.629632 30.3396309,185.544394 43.4512302,190.72805 C43.4512302,190.72805 59.6120387,192.252654 62.3563269,194.692022 C65.1006151,197.131389 74.2482425,200.180598 74.8580844,196.216626 C75.4679262,192.252654 77.2974517,187.068999 80.6515817,186.459157 C84.0057118,185.849315 124.255272,174.872162 130.353691,162.980247 C130.353691,162.980247 144.075132,170.60327 152.612917,179.445976 C161.150703,188.288683 181.275483,193.167417 181.275483,193.167417 L177.921353,158.101512 Z" id="Path" fill="#A0616A"></path>
                <path d="M187.983743,148.344043 C187.983743,148.344043 174.617483,151.896896 173.525132,150.577851 C172.43278,149.258806 166.639279,156.576908 172.127856,171.213111 C177.616432,185.849315 176.396749,192.557575 179.445958,194.692022 C182.495167,196.826468 196.82645,193.472338 201.095343,194.996943 C205.364236,196.521547 210.852812,197.741231 212.682337,188.898524 C214.511863,180.055818 219.085677,164.504851 218.170914,162.370405 C217.256151,160.235959 212.377417,155.357224 212.377417,155.357224 L202.315026,150.173568 L187.983743,148.344043 Z" id="Path" fill="#3F3D56"></path>
                <path d="M234.179262,114.040455 C234.179262,114.040455 232.056457,108.094177 228.115769,106.979383 C227.782572,106.888694 227.454233,106.781018 227.132039,106.656777 C225.651767,106.069069 221.13627,104.786115 217.865993,109.31419 C213.902021,114.802767 210.24297,121.206106 213.292179,124.865157 C216.341388,128.524208 222.439807,130.658654 222.439807,130.658654 L227.01362,136.452152 C227.01362,136.452152 217.865993,152.917881 217.865993,160.540904 C217.865993,160.540904 217.561072,163.590113 212.377417,158.101537 C207.193761,152.61296 185.980758,148.818268 185.980758,148.818268 C185.980758,148.818268 190.423111,142.855491 187.068981,140.111203 C183.714851,137.366914 180.644035,126.435981 188.582782,122.143979 L202.162566,102.14854 L204.601933,102.453461 C204.601933,102.453461 201.400264,105.350209 201.095343,106.874814 C200.790422,108.399418 188.593585,119.07165 193.47232,120.901176 C198.351054,122.730701 206.278998,118.766729 209.633128,114.192916 C211.4779,111.677318 214.06058,108.239335 217.330439,106.06041 C220.748078,103.829974 225.097259,103.596459 228.734073,105.448129 L229.757909,105.960045 L229.757909,105.960045 C231.751046,107.355238 233.314918,109.279355 234.273296,111.515573 L234.63664,112.363381 L234.179262,114.040455 Z" id="Path" fill="#2F2E41"></path>
                <circle id="Oval" fill="#2F2E41" cx="214.054478" cy="73.1810468" r="13.4165233"></circle>
                <ellipse id="Oval" fill="#2F2E41" cx="202.772408" cy="68.1498425" rx="11.8919156" ry="9.30008787"></ellipse>
                <ellipse id="Oval" fill="#A0616A" cx="207.193761" cy="82.7860464" rx="1.98198594" ry="3.50659051"></ellipse>
                <path d="M210.547891,51.9463421 L210.547891,76.2302437 L203.53471,76.2302437 L203.53471,51.9463421 C203.53471,51.0437313 204.266436,50.311966 205.169046,50.311966 L208.913558,50.311966 C209.816168,50.311966 210.547891,51.0437318 210.547891,51.9463421 L210.547891,51.9463421 Z" id="Path" fill="#FF6584"></path>
                <circle id="Oval" fill="#F78500" cx="207.041301" cy="81.1089844" r="7.6230259"></circle>
                <circle id="Oval" fill="#F2F2F2" cx="207.041304" cy="81.1089844" r="3.35413005"></circle>
                <circle id="Oval" fill="#FF6584" cx="207.04131" cy="81.1089844" r="1"></circle>
                <path d="M210.547891,51.9463421 L210.547891,53.0562543 L203.53471,53.0562543 L203.53471,51.9463421 C203.53471,51.0437313 204.266436,50.3120233 205.169046,50.311966 L208.913558,50.311966 C209.816168,50.3120233 210.547891,51.0437318 210.547891,51.9463421 L210.547891,51.9463421 Z" id="Path" fill="#000000" opacity="0.1"></path>
                <path d="M129.089406,112.103058 L147.043177,94.1492871 C147.671227,93.521232 148.523049,93.1683939 149.411249,93.1683939 C150.29945,93.1683939 151.151272,93.521232 151.779322,94.1492871 L167.93026,110.300222 C169.238108,111.608075 169.238108,113.728517 167.93026,115.03637 L151.155389,131.811246 C149.914427,133.052218 147.925929,133.124694 146.597919,131.977355 L129.268081,117.00532 C128.563921,116.396965 128.14463,115.523055 128.110736,114.593115 C128.076843,113.663175 128.431401,112.761061 129.089406,112.103058 Z" id="Path" fill="#2F2E41"></path>
                <polygon id="Path" fill="#F2F2F2" points="134.165202 114.955185 149.868629 99.2517575 162.827768 112.210896 147.734183 127.304482"></polygon>
                <circle id="Oval" fill="#F78500" cx="148.801406" cy="113.125671" r="7.50438117"></circle>
                <path d="M145.461238,119.521787 C142.873851,117.090609 142.344239,113.178899 144.192005,110.14724 C146.039771,107.115581 149.759239,105.793643 153.105837,106.97917 C150.710589,105.301817 147.559133,105.168611 145.030884,106.637859 C142.502636,108.107106 141.058127,110.911177 141.329629,113.822708 C141.601131,116.734239 143.53919,119.222884 146.295502,120.199342 C146.001684,119.993579 145.722891,119.767154 145.461238,119.521787 Z" id="Path" fill="#000000" opacity="0.1"></path>
                <path d="M152.490912,111.634404 C153.385855,112.475299 153.433188,115.502304 152.066734,116.956582 C150.70028,118.410859 148.437483,117.74171 147.54254,116.900815 C146.647597,116.059919 147.459409,115.365709 148.825867,113.911431 C150.192324,112.457153 151.59597,110.793508 152.490912,111.634404 Z" id="Path" fill="#F2F2F2"></path>
                <circle id="Oval" fill="#2F2E41" cx="144.87264" cy="113.248002" r="2.22351989"></circle>
                <circle id="Oval" fill="#2F2E41" cx="148.869409" cy="108.994368" r="2.22351989"></circle>
                <circle id="Oval" fill="#F2F2F2" cx="144.872646" cy="113.247999" r="1"></circle>
                <circle id="Oval" fill="#F2F2F2" cx="144.633384" cy="111.879042" r="1"></circle>
                <circle id="Oval" fill="#F2F2F2" cx="148.630147" cy="107.62541" r="1"></circle>
                <circle id="Oval" fill="#F2F2F2" cx="148.869409" cy="108.994359" r="1"></circle>
            </g>
        </g>
    </g>
</svg>